<?xml version="1.0" encoding="UTF-8"?>
<svg version="1.1" xmlns="http://www.w3.org/2000/svg" width="1024" height="1024">
<path d="M0 0 C0 0.66 0 1.32 0 2 C1.65 2.66 3.3 3.32 5 4 C5 4.66 5 5.32 5 6 C6.65 6.66 8.3 7.32 10 8 C10 8.66 10 9.32 10 10 C10.556875 10.2475 11.11375 10.495 11.6875 10.75 C14.42410913 12.22924818 16.67650869 13.93467439 19 16 C19 16.66 19 17.32 19 18 C19.598125 18.28875 20.19625 18.5775 20.8125 18.875 C23 20 23 20 26 22 C26 22.66 26 23.32 26 24 C26.598125 24.28875 27.19625 24.5775 27.8125 24.875 C30 26 30 26 33 28 C33 28.66 33 29.32 33 30 C33.54398438 30.22558594 34.08796875 30.45117188 34.6484375 30.68359375 C37.73640119 32.41223787 40.04454974 34.64550144 42.625 37.0625 C46.04209753 40.41533647 46.04209753 40.41533647 50 43 C50 43.66 50 44.32 50 45 C50.55171875 45.2475 51.1034375 45.495 51.671875 45.75 C54.45136707 47.24234474 56.7814707 49.03672523 59.25 51 C60.14203125 51.70125 61.0340625 52.4025 61.953125 53.125 C62.62859375 53.74375 63.3040625 54.3625 64 55 C64 55.66 64 56.32 64 57 C64.55171875 57.2475 65.1034375 57.495 65.671875 57.75 C68.45136707 59.24234474 70.7814707 61.03672523 73.25 63 C74.14203125 63.70125 75.0340625 64.4025 75.953125 65.125 C76.62859375 65.74375 77.3040625 66.3625 78 67 C78 67.66 78 68.32 78 69 C78.54398438 69.22558594 79.08796875 69.45117188 79.6484375 69.68359375 C82.73640119 71.41223787 85.04454974 73.64550144 87.625 76.0625 C91.04209753 79.41533647 91.04209753 79.41533647 95 82 C95 82.66 95 83.32 95 84 C95.55171875 84.2475 96.1034375 84.495 96.671875 84.75 C99.45136707 86.24234474 101.7814707 88.03672523 104.25 90 C105.14203125 90.70125 106.0340625 91.4025 106.953125 92.125 C107.62859375 92.74375 108.3040625 93.3625 109 94 C109 94.66 109 95.32 109 96 C109.57234375 96.268125 110.1446875 96.53625 110.734375 96.8125 C113.07884634 98.04132636 115.12404938 99.42522176 117.25 101 C117.95640625 101.515625 118.6628125 102.03125 119.390625 102.5625 C119.92171875 103.036875 120.4528125 103.51125 121 104 C121 104.66 121 105.32 121 106 C121.66 106 122.32 106 123 106 C123 106.66 123 107.32 123 108 C123.598125 108.28875 124.19625 108.5775 124.8125 108.875 C127 110 127 110 130 112 C130 112.66 130 113.32 130 114 C130.53625 114.226875 131.0725 114.45375 131.625 114.6875 C134.82460161 116.45570089 137.29037223 118.53670203 140 121 C140 121.66 140 122.32 140 123 C140.55171875 123.2475 141.1034375 123.495 141.671875 123.75 C144.45136707 125.24234474 146.7814707 127.03672523 149.25 129 C150.14203125 129.70125 151.0340625 130.4025 151.953125 131.125 C152.96632813 132.053125 152.96632813 132.053125 154 133 C154 133.66 154 134.32 154 135 C154.57234375 135.268125 155.1446875 135.53625 155.734375 135.8125 C158.07884634 137.04132636 160.12404938 138.42522176 162.25 140 C163.30960938 140.7734375 163.30960938 140.7734375 164.390625 141.5625 C164.92171875 142.036875 165.4528125 142.51125 166 143 C166 143.66 166 144.32 166 145 C166.66 145 167.32 145 168 145 C168 145.66 168 146.32 168 147 C168.598125 147.28875 169.19625 147.5775 169.8125 147.875 C172 149 172 149 175 151 C175 151.66 175 152.32 175 153 C175.598125 153.28875 176.19625 153.5775 176.8125 153.875 C179 155 179 155 182 157 C182 157.66 182 158.32 182 159 C182.7425 159.268125 183.485 159.53625 184.25 159.8125 C186.89061949 160.95276751 188.85552844 162.09380306 191 164 C191 164.66 191 165.32 191 166 C191.680625 166.185625 192.36125 166.37125 193.0625 166.5625 C198.11104595 169.03306504 201.96693496 172.88895405 204.4375 177.9375 C204.623125 178.618125 204.80875 179.29875 205 180 C205.66 180 206.32 180 207 180 C209 183 209 183 209 186 C209.66 186 210.32 186 211 186 C218.63657028 196.41350493 220.3547735 209.53333522 220.25 222.0625 C220.25773437 222.99126953 220.26546875 223.92003906 220.2734375 224.87695312 C220.23569595 238.32237921 216.19768322 250.29746914 208 261 C207.67 261.99 207.34 262.98 207 264 C206.34 264 205.68 264 205 264 C205 264.66 205 265.32 205 266 C204.34 266 203.68 266 203 266 C202.731875 266.598125 202.46375 267.19625 202.1875 267.8125 C201.00691239 269.98726664 199.73183488 271.26816512 198 273 C197.67 273.99 197.34 274.98 197 276 C194.01190062 278.24471856 190.69324983 279.97463296 186.9140625 280.03125 C185 279.75 185 279.75 182 279 C181.67 278.01 181.34 277.02 181 276 C180.34 276 179.68 276 179 276 C176.83192028 269.49576084 178.03870641 263.46507089 179.5 256.9375 C181.217735 248.83497641 181.3372994 241.2514951 181 233 C180.93619141 231.16888672 180.93619141 231.16888672 180.87109375 229.30078125 C180.47005156 221.54445458 179.09620104 214.46160682 177 207 C176.66243212 205.5634885 176.32858456 204.12609291 176 202.6875 C174.97955542 198.9246106 173.58158821 195.55857347 172 192 C170.61231195 188.27515312 170 186.02141462 170 182 C169.34 182 168.68 182 168 182 C167.62875 180.906875 167.2575 179.81375 166.875 178.6875 C161.08435629 163.38942731 147.13730306 140.56865153 132 133 C132 132.34 132 131.68 132 131 C131.319375 130.773125 130.63875 130.54625 129.9375 130.3125 C127.46367742 129.20717502 125.75953443 128.16219623 123.625 126.5625 C120.24916152 124.05473427 116.91442513 122.51783832 113 121 C113 120.34 113 119.68 113 119 C111.68 119 110.36 119 109 119 C109 118.34 109 117.68 109 117 C108.2678125 116.87367188 107.535625 116.74734375 106.78125 116.6171875 C104.14089925 116.03126697 101.96633032 115.21457744 99.5 114.125 C93.49117464 111.65341162 87.34172786 110.33342964 81 109 C79.33292682 108.62681131 77.66620527 108.25204479 76 107.875 C74.66776232 107.57836895 73.33441223 107.28669013 72 107 C70.90594849 106.74657837 70.90594849 106.74657837 69.78979492 106.48803711 C53.48736629 103.63614643 33.66291743 104.8108472 18 110 C17.27200195 110.24089355 16.54400391 110.48178711 15.79394531 110.72998047 C7.24586688 113.60459171 7.24586688 113.60459171 -0.76171875 117.68359375 C-3 119 -3 119 -6 119 C-6 119.66 -6 120.32 -6 121 C-6.60328125 121.32613281 -7.2065625 121.65226563 -7.828125 121.98828125 C-8.62734375 122.42527344 -9.4265625 122.86226562 -10.25 123.3125 C-11.43335938 123.95638672 -11.43335938 123.95638672 -12.640625 124.61328125 C-15.03172974 125.9534484 -15.03172974 125.9534484 -17.171875 127.66796875 C-19 129 -19 129 -21 129 C-21 129.66 -21 130.32 -21 131 C-22.051875 131.763125 -23.10375 132.52625 -24.1875 133.3125 C-33.44122093 140.0469695 -41.64823368 148.58414934 -47.73046875 158.26953125 C-48.14941406 158.84058594 -48.56835938 159.41164063 -49 160 C-49.66 160 -50.32 160 -51 160 C-51.66 161.98 -52.32 163.96 -53 166 C-53.66 166 -54.32 166 -55 166 C-55.103125 166.53625 -55.20625 167.0725 -55.3125 167.625 C-56.18092697 170.62502044 -57.55620296 173.2379535 -59 176 C-59.66 176 -60.32 176 -61 176 C-61 177.32 -61 178.64 -61 180 C-61.66 180 -62.32 180 -63 180 C-63 181.32 -63 182.64 -63 184 C-63.66 184 -64.32 184 -65 184 C-65.13664062 184.71671875 -65.27328125 185.4334375 -65.4140625 186.171875 C-65.97883431 188.89784027 -66.64460814 191.56404285 -67.375 194.25 C-67.60960937 195.12140625 -67.84421875 195.9928125 -68.0859375 196.890625 C-68.59250925 198.61383488 -69.11987868 200.33268845 -69.72875977 202.02246094 C-71.72895108 207.60171668 -72.67520241 212.85622772 -73.1875 218.75 C-73.26935547 219.57371094 -73.35121094 220.39742187 -73.43554688 221.24609375 C-73.81305635 225.18615066 -74.01423347 229.04028427 -74 233 C-73.11062492 232.99631283 -72.22124985 232.99262566 -71.30492401 232.98882675 C-49.65470274 232.90045177 -28.0045126 232.83427868 -6.35414886 232.79275131 C4.11585471 232.77213469 14.58573782 232.74403122 25.05566406 232.69824219 C34.18229615 232.65834696 43.30884098 232.63256064 52.43555784 232.62364602 C57.26717145 232.61843584 62.09853544 232.60620867 66.93006897 232.57707977 C71.48056781 232.54986827 76.03071491 232.54156659 80.58128738 232.54756927 C82.24855589 232.5464716 83.91583653 232.53855186 85.58303452 232.5231781 C101.10396254 232.3871119 101.10396254 232.3871119 108 237 C108.9075 237.598125 109.815 238.19625 110.75 238.8125 C116.74985307 244.64569049 117.92257392 250.86537541 118.1875 259.0625 C117.93737556 264.31511322 116.98381203 269.30074597 113 273 C109.87376745 273.31900332 107.82883747 273.41441874 105 272 C105 271.34 105 270.68 105 270 C104.34 270 103.68 270 103 270 C101 264 99 258 97 252 C94.68970915 251.25740651 92.354248 250.588562 90 250 C89.67 249.67 89.34 249.34 89 249 C86.11307165 248.89877129 83.25059701 248.86031933 80.36328125 248.8671875 C79.49108444 248.86623077 78.61888763 248.86527405 77.72026062 248.86428833 C75.86827523 248.86360613 74.01628747 248.86546319 72.16430664 248.86962891 C69.34190408 248.87494462 66.51966299 248.86970196 63.69726562 248.86328125 C61.89843715 248.86394265 60.09960878 248.8652251 58.30078125 248.8671875 C57.03951164 248.86415115 57.03951164 248.86415115 55.75276184 248.86105347 C51.37142681 248.87837854 47.32530787 249.23983518 43 250 C40.84589431 250.06464159 38.69017581 250.08582193 36.53515625 250.0703125 C34.71661133 250.08578125 34.71661133 250.08578125 32.86132812 250.1015625 C30.33271835 250.11716318 27.80385485 250.1094211 25.27539062 250.078125 C17.200537 250.13394493 17.200537 250.13394493 10.68359375 254.4296875 C9.17549686 256.25461546 8.05771925 257.88456151 7 260 C6.34 260 5.68 260 5 260 C4.5978125 260.86625 4.5978125 260.86625 4.1875 261.75 C2.97070811 264.05550043 1.69666121 266.02056192 0 268 C-0.66 268 -1.32 268 -2 268 C-2.26296875 268.58394531 -2.5259375 269.16789062 -2.796875 269.76953125 C-4.05887219 272.10914292 -5.40902405 273.77603623 -7.25 275.6875 C-7.81203125 276.28949219 -8.3740625 276.89148438 -8.953125 277.51171875 C-13.00284756 280.45626893 -18.05707795 280.11705759 -22.89453125 279.94921875 C-24.00787842 279.91111084 -25.12122559 279.87300293 -26.26831055 279.83374023 C-27.43789307 279.78548096 -28.60747559 279.73722168 -29.8125 279.6875 C-31.00979736 279.64117432 -32.20709473 279.59484863 -33.44067383 279.54711914 C-42.69919615 279.14793216 -51.83164253 278.33193345 -61 277 C-61.1546875 277.86625 -61.1546875 277.86625 -61.3125 278.75 C-62.14272847 281.46711135 -62.96803902 282.99902753 -65 285 C-67.69921875 285.390625 -67.69921875 285.390625 -70.6875 285.25 C-71.68136719 285.21390625 -72.67523438 285.1778125 -73.69921875 285.140625 C-74.45847656 285.09421875 -75.21773438 285.0478125 -76 285 C-76.33 286.98 -76.66 288.96 -77 291 C-77.66 291 -78.32 291 -79 291 C-79 292.32 -79 293.64 -79 295 C-79.66 295 -80.32 295 -81 295 C-81 296.32 -81 297.64 -81 299 C-81.66 299 -82.32 299 -83 299 C-83 300.32 -83 301.64 -83 303 C-83.66 303 -84.32 303 -85 303 C-85 304.32 -85 305.64 -85 307 C-85.66 307 -86.32 307 -87 307 C-88.06723961 310.46222615 -88.10173486 313.64039266 -88.0625 317.25 C-88.05347656 318.32765625 -88.04445313 319.4053125 -88.03515625 320.515625 C-88.02355469 321.33546875 -88.01195312 322.1553125 -88 323 C-87.34 323 -86.68 323 -86 323 C-86 323.66 -86 324.32 -86 325 C-84.7934375 324.9071875 -84.7934375 324.9071875 -83.5625 324.8125 C-78.39794364 325.08431876 -73.6230237 326.68848815 -69 329 C-68.70096988 332.10385697 -68.5845077 335.16219075 -68.52148438 338.27734375 C-68.34198918 342.73407811 -67.44746861 345.31900721 -65 349 C-65 349.99 -65 350.98 -65 352 C-64.01 352 -63.02 352 -62 352 C-62 356.62 -62 361.24 -62 366 C-60.5975 366.70125 -59.195 367.4025 -57.75 368.125 C-53.46671831 370.56680783 -50.9317738 372.29655074 -49 377 C-48.827983 380.28930072 -48.87459461 383.49259726 -49.0546875 386.78125 C-48.99555836 390.26142221 -48.2440161 392.76737423 -47 396 C-46.505 397.485 -46.505 397.485 -46 399 C-43.13539528 400.09982478 -40.34807208 400.12854408 -37.3046875 400.1328125 C-35.98404297 400.13474609 -35.98404297 400.13474609 -34.63671875 400.13671875 C-33.26966797 400.13091797 -33.26966797 400.13091797 -31.875 400.125 C-30.95589844 400.12886719 -30.03679687 400.13273437 -29.08984375 400.13671875 C-27.77306641 400.13478516 -27.77306641 400.13478516 -26.4296875 400.1328125 C-25.62772949 400.13168457 -24.82577148 400.13055664 -23.99951172 400.12939453 C-21.92679299 400.12527975 -21.92679299 400.12527975 -20 399 C-17.44122107 398.68879716 -14.88148388 398.49035334 -12.3125 398.28125 C-9.97731545 398.12863953 -9.97731545 398.12863953 -8 397 C10.68807339 393.2293578 10.68807339 393.2293578 19.375 396.125 C23.42794559 399.01996113 26.48794947 401.34178986 27.44921875 406.33203125 C27.7249761 412.52230822 26.13036292 416.76749556 23 422 C22.32402585 423.32863884 21.65484162 424.6608194 21 426 C20.34 426 19.68 426 19 426 C19 426.66 19 427.32 19 428 C18.34 428 17.68 428 17 428 C16.74347656 428.58136719 16.48695313 429.16273438 16.22265625 429.76171875 C9.21323669 442.59365934 -8.50225224 452.71141794 -22 457 C-24.34132373 457.46826475 -26.62249713 457.74707416 -29 458 C-29.33 458.33 -29.66 458.66 -30 459 C-33.65935522 459.25531383 -37.3328139 459.18524466 -41 459.1875 C-42.01707031 459.19974609 -43.03414063 459.21199219 -44.08203125 459.22460938 C-52.69812459 459.24120006 -60.06825345 458.22773202 -67.875 454.4375 C-70.59080196 453.13376031 -73.13898779 451.95367074 -76 451 C-76 450.34 -76 449.68 -76 449 C-76.55042969 448.91878906 -77.10085938 448.83757812 -77.66796875 448.75390625 C-85.2432538 446.30494475 -91.75973752 438.5699078 -96.66015625 432.53125 C-97.94209854 430.87118705 -97.94209854 430.87118705 -100 430 C-100.72693904 428.02111039 -101.39816251 426.02045442 -102 424 C-102.66 424 -103.32 424 -104 424 C-104 422.68 -104 421.36 -104 420 C-104.66 420 -105.32 420 -106 420 C-106.18175781 419.38253906 -106.36351562 418.76507812 -106.55078125 418.12890625 C-106.92783203 416.85853516 -106.92783203 416.85853516 -107.3125 415.5625 C-107.55613281 414.73878906 -107.79976563 413.91507813 -108.05078125 413.06640625 C-108.88752334 410.19013112 -108.88752334 410.19013112 -109.73531777 408.24167508 C-112.55585974 401.09359024 -112.42294879 394.08197652 -112.38768005 386.4967804 C-112.3918577 385.03055753 -112.39733758 383.56433789 -112.40399987 382.09812421 C-112.41841732 378.08646171 -112.41422135 374.07500532 -112.40683305 370.06333172 C-112.40209435 365.72982885 -112.4146176 361.39637011 -112.42485046 357.06288147 C-112.44203149 348.57902953 -112.44287972 340.09525169 -112.43763756 331.61138687 C-112.43359244 324.71240018 -112.43504349 317.81343534 -112.44038582 310.91444969 C-112.44113424 309.93168262 -112.44188266 308.94891555 -112.44265376 307.93636766 C-112.44418529 305.9396897 -112.44572363 303.94301174 -112.44726873 301.94633379 C-112.46099188 283.22780515 -112.45555794 264.50931832 -112.44408352 245.79079064 C-112.43415681 228.68388355 -112.44708243 211.57708471 -112.47101771 194.47019432 C-112.49543035 176.88909761 -112.50501092 159.30805126 -112.49836498 141.72693795 C-112.49487687 131.86288728 -112.49707758 121.99891979 -112.51461601 112.13488197 C-112.52936529 103.73552479 -112.52993815 95.33630932 -112.5125451 86.93695483 C-112.50405411 82.65568081 -112.50183862 78.37465964 -112.51719666 74.09339905 C-112.53111142 70.16564649 -112.52619443 66.23836179 -112.50695742 62.31063583 C-112.50321768 60.8981496 -112.50606023 59.48562528 -112.51656907 58.0731732 C-112.63254703 41.27570386 -107.85455588 24.46156627 -96 12 C-95.34 12 -94.68 12 -94 12 C-93.7525 11.38125 -93.505 10.7625 -93.25 10.125 C-91.79371361 7.64931313 -90.62187494 7.04874998 -88 6 C-88 5.34 -88 4.68 -88 4 C-86.35 3.34 -84.7 2.68 -83 2 C-83 1.34 -83 0.68 -83 0 C-80.2730819 -1.46256659 -77.5430812 -2.91928541 -74.8125 -4.375 C-74.04357422 -4.7875 -73.27464844 -5.2 -72.48242188 -5.625 C-47.59683289 -18.86883277 -23.42377643 -13.41778136 0 0 Z " fill="#FE7E00" transform="translate(492,165)"/>
<path d="M0 0 C2.00462341 -0.36749268 2.00462341 -0.36749268 4.49389648 -0.35644531 C5.42503769 -0.35944641 6.35617889 -0.36244751 7.3155365 -0.36553955 C8.82803734 -0.34701935 8.82803734 -0.34701935 10.37109375 -0.328125 C11.40436295 -0.32625183 12.43763214 -0.32437866 13.50221252 -0.32244873 C15.69039122 -0.31571749 17.87855767 -0.30178192 20.06665039 -0.28125 C23.42019812 -0.2501604 26.77327573 -0.24028673 30.12695312 -0.234375 C32.25000574 -0.22520255 34.37305357 -0.21482601 36.49609375 -0.203125 C38.00555824 -0.19675018 38.00555824 -0.19675018 39.54551697 -0.19024658 C40.94695702 -0.17583527 40.94695702 -0.17583527 42.37670898 -0.16113281 C43.61009254 -0.15089081 43.61009254 -0.15089081 44.86839294 -0.14044189 C47 0 47 0 50 1 C52.07602533 5.49805488 52.39680308 10.05022981 52.75390625 14.92578125 C52.78160641 16.98789716 52.78160641 16.98789716 54 18 C54.16218587 19.60083461 54.27849417 21.20636728 54.375 22.8125 C54.7998095 28.10206346 55.93141236 32.94547708 57.3046875 38.05859375 C58.16834042 41.71213672 58.5349213 45.29955632 58.7890625 49.0390625 C58.89285608 51.07653467 58.89285608 51.07653467 60 53 C60.2275015 54.87056791 60.40962811 56.74685958 60.5625 58.625 C60.64628906 59.62789062 60.73007812 60.63078125 60.81640625 61.6640625 C60.87699219 62.43492187 60.93757812 63.20578125 61 64 C62.79592426 56.41202565 63.92414566 48.83839855 64.94335938 41.11328125 C65.06646484 40.20964844 65.18957031 39.30601562 65.31640625 38.375 C65.42412354 37.55773437 65.53184082 36.74046875 65.64282227 35.8984375 C66 34 66 34 67 33 C67.20839015 31.35892758 67.36751725 29.71143707 67.5 28.0625 C67.89022298 23.21955403 67.89022298 23.21955403 69 21 C69.2627718 19.49395656 69.48472878 17.98064999 69.68359375 16.46484375 C69.80669922 15.57345703 69.92980469 14.68207031 70.05664062 13.76367188 C70.3109949 11.87623272 70.56098089 9.98819984 70.80664062 8.09960938 C70.93103516 7.20951172 71.05542969 6.31941406 71.18359375 5.40234375 C71.29243896 4.58241943 71.40128418 3.76249512 71.51342773 2.91772461 C71.75428101 1.96845093 71.75428101 1.96845093 72 1 C74.43967497 -0.21983748 75.99904524 -0.12051527 78.72509766 -0.11352539 C79.70596344 -0.11344986 80.68682922 -0.11337433 81.69741821 -0.11329651 C82.75891083 -0.10813522 83.82040344 -0.10297394 84.9140625 -0.09765625 C85.99883881 -0.0962413 87.08361511 -0.09482635 88.20126343 -0.09336853 C91.67587 -0.08775802 95.15041281 -0.07520372 98.625 -0.0625 C100.97656157 -0.05748635 103.32812415 -0.05292321 105.6796875 -0.04882812 C111.45314686 -0.03778518 117.22656888 -0.02103679 123 0 C124.05782092 3.17346275 124.12577876 5.41143079 124.12698364 8.74490356 C124.13121338 10.54113663 124.13121338 10.54113663 124.13552856 12.37365723 C124.13249222 14.34682922 124.13249222 14.34682922 124.12939453 16.35986328 C124.13074938 17.75768072 124.13252978 19.1554978 124.13470459 20.55331421 C124.13926815 24.35061215 124.137494 28.14788295 124.1343255 31.94518137 C124.13179736 35.91388428 124.13414062 39.88258484 124.13571167 43.85128784 C124.13753161 50.51430683 124.13513121 57.17731473 124.13037109 63.84033203 C124.12492435 71.55376132 124.12669483 79.26716419 124.1321975 86.98059285 C124.13672831 93.5954785 124.13737947 100.21035618 124.13475883 106.82524288 C124.13319645 110.77954789 124.13300132 114.73384046 124.13629532 118.68814468 C124.13917371 122.4030316 124.13719895 126.11788428 124.13140106 129.83276749 C124.12943786 131.85431114 124.13242733 133.87585767 124.13552856 135.8973999 C124.13270874 137.08924896 124.12988892 138.28109802 124.12698364 139.50906372 C124.1264181 141.07257159 124.1264181 141.07257159 124.12584114 142.66766548 C124 145 124 145 123 146 C120.63601532 146.1007812 118.30188689 146.13973215 115.9375 146.1328125 C115.23101318 146.13376923 114.52452637 146.13472595 113.79663086 146.13571167 C112.30029207 146.13639333 110.80395033 146.13454005 109.30761719 146.13037109 C107.00969843 146.12502257 104.71197514 146.13031651 102.4140625 146.13671875 C100.96354123 146.13605797 99.51302009 146.1347768 98.0625 146.1328125 C97.0250061 146.13584885 97.0250061 146.13584885 95.96655273 146.13894653 C91.11495224 146.11495224 91.11495224 146.11495224 90 145 C89.87603129 142.85331715 89.8219928 140.70257613 89.79467773 138.55249023 C89.78477814 137.87934784 89.77487854 137.20620544 89.76467896 136.51266479 C89.73298162 134.27801075 89.70827426 132.04333542 89.68359375 129.80859375 C89.66303131 128.26302016 89.64203504 126.71745228 89.62062073 125.17189026 C89.56532663 121.09649268 89.51594987 117.02104375 89.46777344 112.94555664 C89.41761183 108.7898296 89.36189796 104.63417748 89.30664062 100.47851562 C89.19896936 92.3190737 89.09754448 84.15956924 89 76 C88.86722656 77.13179687 88.73445312 78.26359375 88.59765625 79.4296875 C88.4194658 80.91148179 88.24106971 82.39325136 88.0625 83.875 C87.97548828 84.62136719 87.88847656 85.36773438 87.79882812 86.13671875 C87.11328125 91.7734375 87.11328125 91.7734375 86 94 C85.79777644 95.66272703 85.63588613 97.33054185 85.5 99 C85.11111111 103.77777778 85.11111111 103.77777778 84 106 C83.6087065 108.54197964 83.25520881 111.07391589 82.9375 113.625 C82.84662109 114.33140625 82.75574219 115.0378125 82.66210938 115.765625 C82.43816881 117.5100041 82.21866182 119.25495134 82 121 C81.34 121 80.68 121 80 121 C80.309375 121.9590625 80.309375 121.9590625 80.625 122.9375 C81.06439545 126.52589616 80.41120415 129.1109075 79.5390625 132.58203125 C78.83134427 135.75650648 78.57231558 138.91242664 78.34375 142.15234375 C78 144 78 144 76 146 C73.01904297 146.22705078 73.01904297 146.22705078 69.2421875 146.1953125 C68.57913605 146.1924826 67.91608459 146.18965271 67.23294067 146.18673706 C65.11344417 146.17553435 62.99436896 146.15043051 60.875 146.125 C59.43880818 146.11497028 58.00260975 146.10584441 56.56640625 146.09765625 C53.04413372 146.075595 49.52210797 146.04106494 46 146 C44.84757004 143.69514008 44.62150852 141.83607246 44.28125 139.28125 C44.15363281 138.34925781 44.02601563 137.41726563 43.89453125 136.45703125 C43.63151042 134.48567708 43.36848958 132.51432292 43.10546875 130.54296875 C42.97785156 129.61097656 42.85023438 128.67898438 42.71875 127.71875 C42.60466797 126.86216797 42.49058594 126.00558594 42.37304688 125.12304688 C42.09617061 122.95427909 42.09617061 122.95427909 41 121 C40.68879716 118.44122107 40.49035334 115.88148388 40.28125 113.3125 C40.12863953 110.97731545 40.12863953 110.97731545 39 109 C38.68879716 106.44122107 38.49035334 103.88148388 38.28125 101.3125 C38.12863953 98.97731545 38.12863953 98.97731545 37 97 C36.68744353 94.14792222 36.48962518 91.29503146 36.28125 88.43359375 C36.26165078 86.05456695 36.26165078 86.05456695 35 85 C34.76636119 83.15108054 34.58696365 81.29511969 34.4375 79.4375 C34.35371094 78.42558594 34.26992188 77.41367187 34.18359375 76.37109375 C34.09271484 75.19740234 34.09271484 75.19740234 34 74 C33.98969254 74.8872728 33.97938507 75.77454559 33.96876526 76.68870544 C33.87096575 85.03251571 33.76847685 93.37625215 33.66066074 101.71993923 C33.60539264 106.0099621 33.55196657 110.29999174 33.50268555 114.59008789 C33.45509914 118.72685436 33.40275868 122.86353536 33.34705925 127.00020027 C33.32660966 128.58189847 33.30790097 130.16362012 33.29092598 131.74535942 C33.2669393 133.95329178 33.23687744 136.1610612 33.20532227 138.36889648 C33.18977798 139.62798325 33.1742337 140.88707001 33.15821838 142.18431091 C33 145 33 145 32 146 C29.55169574 146.08843793 27.13179401 146.11528752 24.68359375 146.09765625 C23.95253922 146.0962413 23.22148468 146.09482635 22.46827698 146.09336853 C20.12464368 146.08775408 17.78110461 146.07519922 15.4375 146.0625 C13.85221492 146.05748686 12.26692834 146.05292363 10.68164062 146.04882812 C6.7877239 146.03777997 2.89387795 146.02050572 -1 146 C-2.04893395 142.85319815 -2.12831567 140.64792614 -2.13371277 137.34448242 C-2.13797775 136.16671234 -2.14224274 134.98894226 -2.14663696 133.77548218 C-2.14618378 132.48187775 -2.14573059 131.18827332 -2.14526367 129.85546875 C-2.14825551 128.48060006 -2.1516581 127.10573222 -2.15544128 125.73086548 C-2.16428163 121.99541915 -2.16661937 118.25999572 -2.16725707 114.52453995 C-2.1682061 111.4080681 -2.17188423 108.29160159 -2.17542917 105.1751318 C-2.18357339 97.82475959 -2.18601338 90.47439964 -2.18530273 83.12402344 C-2.18470152 75.5355815 -2.19526219 67.94721055 -2.2110464 60.35878658 C-2.22410873 53.84747704 -2.2294872 47.33619075 -2.22884732 40.8248682 C-2.22859201 36.93419462 -2.23146182 33.04358415 -2.24202538 29.15292358 C-2.25168475 25.49545756 -2.2518005 21.83811529 -2.24450874 18.18064499 C-2.24295951 16.1952632 -2.25132417 14.20988148 -2.25994873 12.22451782 C-2.25575424 11.04674774 -2.25155975 9.86897766 -2.24723816 8.65551758 C-2.24805531 7.11689812 -2.24805531 7.11689812 -2.24888897 5.54719543 C-2 3 -2 3 0 0 Z M32 62 C32 64.64 32 67.28 32 70 C32.33 70 32.66 70 33 70 C33 67.36 33 64.72 33 62 C32.67 62 32.34 62 32 62 Z " fill="#FE7E00" transform="translate(572,648)"/>
<path d="M0 0 C1.01195435 -0.00637985 2.02390869 -0.0127597 3.06652832 -0.01933289 C4.17057007 -0.02044571 5.27461182 -0.02155853 6.41210938 -0.02270508 C8.10926086 -0.02769768 8.10926086 -0.02769768 9.84069824 -0.03279114 C12.24503166 -0.03786824 14.64937216 -0.04019922 17.05371094 -0.04003906 C20.71236053 -0.04221051 24.37070131 -0.06031626 28.02929688 -0.0793457 C30.36523335 -0.08228256 32.70117125 -0.0842654 35.03710938 -0.08520508 C36.66888123 -0.09598335 36.66888123 -0.09598335 38.33361816 -0.10697937 C46.43797124 -0.0829389 53.8085479 0.78196171 61.25585938 4.14526367 C61.25585938 4.80526367 61.25585938 5.46526367 61.25585938 6.14526367 C61.85269531 6.22776367 62.44953125 6.31026367 63.06445312 6.39526367 C65.93829155 7.37882335 66.67389451 8.61936564 68.31835938 11.14526367 C68.80433594 11.86713867 69.2903125 12.58901367 69.79101562 13.33276367 C74.08663999 21.58036245 74.73537331 28.97954436 74.64697266 38.25708008 C74.63083047 40.27387529 74.64692053 42.28868386 74.66601562 44.30541992 C74.63518284 54.59329097 73.29379133 60.56595234 66.25585938 68.14526367 C65.26585937 68.64026367 65.26585937 68.64026367 64.25585938 69.14526367 C64.25585938 69.80526367 64.25585938 70.46526367 64.25585938 71.14526367 C64.91585937 71.47526367 65.57585937 71.80526367 66.25585938 72.14526367 C66.25585938 72.80526367 66.25585938 73.46526367 66.25585938 74.14526367 C66.91585937 74.14526367 67.57585937 74.14526367 68.25585938 74.14526367 C72.93911931 81.48331725 72.79689975 88.16584891 72.68164062 96.67260742 C72.67670971 98.07124871 72.6734154 99.46989663 72.67167664 100.86854553 C72.66407633 103.7826993 72.64362747 106.69635486 72.61254883 109.61035156 C72.57271818 113.35197526 72.5548946 117.09327795 72.54523945 120.83508968 C72.53529652 124.40597254 72.51541233 127.97677672 72.49414062 131.54760742 C72.489047 132.57181447 72.489047 132.57181447 72.48385048 133.61671257 C72.47232902 135.53634514 72.45280454 137.45592473 72.43286133 139.37548828 C72.42301712 140.46832626 72.41317291 141.56116425 72.4030304 142.68711853 C72.25585938 145.14526367 72.25585938 145.14526367 71.25585938 146.14526367 C68.81925492 146.24609131 66.41161237 146.2849897 63.97460938 146.27807617 C63.24592651 146.2790329 62.51724365 146.27998962 61.76647949 146.28097534 C60.22306227 146.28165703 58.67964221 146.27980355 57.13623047 146.27563477 C54.76588538 146.27028629 52.39572978 146.27558009 50.02539062 146.28198242 C48.52929645 146.28132164 47.0332024 146.28004047 45.53710938 146.27807617 C44.823573 146.2801004 44.11003662 146.28212463 43.37487793 146.28421021 C38.37081129 146.26021558 38.37081129 146.26021558 37.25585938 145.14526367 C37.13228859 143.21302372 37.0779148 141.27632568 37.05053711 139.34033203 C37.02061928 137.4785154 37.02061928 137.4785154 36.99009705 135.5790863 C36.97311145 134.21442797 36.95623268 132.8497683 36.93945312 131.48510742 C36.91889001 130.09647492 36.89789372 128.70784877 36.8764801 127.31922913 C36.82119291 123.65812308 36.77181312 119.99695994 36.72363281 116.33575439 C36.67346616 112.6022837 36.61775492 108.86889629 36.5625 105.13549805 C36.45483719 97.80549038 36.35341044 90.47541362 36.25585938 83.14526367 C33.28585937 82.65026367 33.28585937 82.65026367 30.25585938 82.14526367 C30.24555191 82.93231186 30.23524445 83.71936005 30.22462463 84.53025818 C30.1268175 91.93224474 30.02432752 99.33414435 29.91652012 106.73599148 C29.86125643 110.54173772 29.80783109 114.34749159 29.75854492 118.15332031 C29.71095197 121.82325702 29.65861128 125.49309758 29.60291862 129.16292 C29.58247201 130.56598594 29.56376281 131.96907827 29.54678535 133.37219048 C29.52279251 135.33103293 29.49215738 137.28979068 29.46118164 139.24853516 C29.44563736 140.36550278 29.43009308 141.4824704 29.41407776 142.63328552 C29.25585938 145.14526367 29.25585938 145.14526367 28.25585938 146.14526367 C25.81925492 146.24609131 23.41161237 146.2849897 20.97460938 146.27807617 C20.24592651 146.2790329 19.51724365 146.27998962 18.76647949 146.28097534 C17.22306227 146.28165703 15.67964221 146.27980355 14.13623047 146.27563477 C11.76588538 146.27028629 9.39572978 146.27558009 7.02539062 146.28198242 C5.52929645 146.28132164 4.0332024 146.28004047 2.53710938 146.27807617 C1.46680481 146.28111252 1.46680481 146.28111252 0.37487793 146.28421021 C-4.62918871 146.26021558 -4.62918871 146.26021558 -5.74414062 145.14526367 C-5.84282938 143.28729387 -5.87046229 141.42553025 -5.87112427 139.56494141 C-5.87394409 138.35337372 -5.87676392 137.14180603 -5.87966919 135.89352417 C-5.8777246 134.53863511 -5.87567641 133.18374619 -5.87353516 131.82885742 C-5.87488916 130.41163081 -5.87666909 128.99440455 -5.87884521 127.57717896 C-5.88341961 123.71778126 -5.88162996 119.85841018 -5.87846613 115.99901199 C-5.87594256 111.96890438 -5.87828006 107.93879911 -5.87985229 103.90869141 C-5.881674 97.13956288 -5.87926766 90.37044524 -5.87451172 83.60131836 C-5.8690691 75.76409882 -5.87083175 67.9269053 -5.87633812 60.08968639 C-5.88086923 53.37293112 -5.88151982 46.65618369 -5.87889946 39.93942738 C-5.87733667 35.92249436 -5.87714297 31.90557359 -5.88043594 27.88864136 C-5.88331462 24.11304373 -5.88133904 20.3374798 -5.87554169 16.56188583 C-5.87421407 15.1722812 -5.87460824 13.78267375 -5.87680435 12.39307022 C-5.87951575 10.50390979 -5.87552113 8.6147432 -5.87112427 6.72558594 C-5.87074724 5.66590103 -5.87037022 4.60621613 -5.86998177 3.51441956 C-5.64608268 -0.70083014 -3.7410123 0.01594349 0 0 Z M30.25585938 31.14526367 C29.92585938 38.40526367 29.59585938 45.66526367 29.25585938 53.14526367 C32.22585938 53.14526367 35.19585937 53.14526367 38.25585938 53.14526367 C40.53472028 46.30868096 41.03505943 40.26206389 39.25585938 33.14526367 C38.59585938 33.14526367 37.93585938 33.14526367 37.25585938 33.14526367 C37.25585938 32.48526367 37.25585938 31.82526367 37.25585938 31.14526367 C34.94585937 31.14526367 32.63585937 31.14526367 30.25585938 31.14526367 Z " fill="#FE7E00" transform="translate(328.744140625,647.854736328125)"/>
<path d="M0 0 C0.92864365 -0.00637985 1.85728729 -0.0127597 2.81407166 -0.01933289 C3.82748123 -0.02044571 4.84089081 -0.02155853 5.88500977 -0.02270508 C6.92528824 -0.02603348 7.96556671 -0.02936188 9.03736877 -0.03279114 C11.24919186 -0.03786861 13.46102265 -0.04019921 15.67285156 -0.04003906 C19.03081284 -0.04220689 22.38843564 -0.06030184 25.74633789 -0.0793457 C27.8967274 -0.08228333 30.04711846 -0.08426565 32.19750977 -0.08520508 C33.19270126 -0.09239059 34.18789276 -0.09957611 35.21324158 -0.10697937 C43.34727606 -0.08082987 51.35118382 0.68345777 58.76391602 4.27026367 C59.50899414 4.6234668 60.25407227 4.97666992 61.02172852 5.34057617 C61.55540039 5.60612305 62.08907227 5.87166992 62.63891602 6.14526367 C62.63891602 6.80526367 62.63891602 7.46526367 62.63891602 8.14526367 C63.29891602 8.14526367 63.95891602 8.14526367 64.63891602 8.14526367 C64.63891602 8.80526367 64.63891602 9.46526367 64.63891602 10.14526367 C65.29891602 10.14526367 65.95891602 10.14526367 66.63891602 10.14526367 C66.63891602 10.80526367 66.63891602 11.46526367 66.63891602 12.14526367 C67.29891602 12.14526367 67.95891602 12.14526367 68.63891602 12.14526367 C73.17792096 20.39799994 73.98286802 27.91095374 73.95141602 37.14526367 C73.9675293 38.09143555 73.98364258 39.03760742 74.00024414 40.01245117 C74.00554044 47.6603131 72.29816465 53.38972773 68.63891602 60.14526367 C67.97891602 60.14526367 67.31891602 60.14526367 66.63891602 60.14526367 C66.63891602 60.80526367 66.63891602 61.46526367 66.63891602 62.14526367 C64.13891602 63.77026367 64.13891602 63.77026367 61.63891602 65.14526367 C62.69079102 65.78463867 63.74266602 66.42401367 64.82641602 67.08276367 C71.16227246 71.64868451 74.12591732 78.52756693 75.36157227 86.09448242 C76.60384947 99.75953164 76.27569902 114.1310996 71.63891602 127.14526367 C70.97891602 127.14526367 70.31891602 127.14526367 69.63891602 127.14526367 C69.26766602 128.47557617 69.26766602 128.47557617 68.88891602 129.83276367 C67.58926977 133.27682623 66.15162375 135.47551171 63.63891602 138.14526367 C62.97891602 138.14526367 62.31891602 138.14526367 61.63891602 138.14526367 C61.63891602 138.80526367 61.63891602 139.46526367 61.63891602 140.14526367 C60.64891602 140.14526367 59.65891602 140.14526367 58.63891602 140.14526367 C58.63891602 140.80526367 58.63891602 141.46526367 58.63891602 142.14526367 C50.41716434 145.63327953 43.71656559 146.43503222 34.83422852 146.37573242 C33.71450653 146.3752742 32.59478455 146.37481598 31.44113159 146.37434387 C29.08615045 146.37133354 26.73117108 146.36348396 24.3762207 146.35107422 C20.75538158 146.33272041 17.13479699 146.33056536 13.51391602 146.33081055 C11.22485129 146.32589865 8.9357883 146.32007177 6.64672852 146.31323242 C5.55828644 146.3121196 4.46984436 146.31100677 3.34841919 146.30986023 C2.35003021 146.30348038 1.35164124 146.29710052 0.32299805 146.29052734 C-1.00101517 146.28480965 -1.00101517 146.28480965 -2.35177612 146.27897644 C-4.36108398 146.14526367 -4.36108398 146.14526367 -5.36108398 145.14526367 C-5.45977274 143.28729387 -5.48740565 141.42553025 -5.48806763 139.56494141 C-5.49088745 138.35337372 -5.49370728 137.14180603 -5.49661255 135.89352417 C-5.49466796 134.53863511 -5.49261977 133.18374619 -5.49047852 131.82885742 C-5.49183252 130.41163081 -5.49361245 128.99440455 -5.49578857 127.57717896 C-5.50036297 123.71778126 -5.49857332 119.85841018 -5.49540949 115.99901199 C-5.49288592 111.96890438 -5.49522342 107.93879911 -5.49679565 103.90869141 C-5.49861736 97.13956288 -5.49621102 90.37044524 -5.49145508 83.60131836 C-5.48601246 75.76409882 -5.48777511 67.9269053 -5.49328148 60.08968639 C-5.49781259 53.37293112 -5.49846318 46.65618369 -5.49584281 39.93942738 C-5.49428002 35.92249436 -5.49408633 31.90557359 -5.4973793 27.88864136 C-5.50025798 24.11304373 -5.4982824 20.3374798 -5.49248505 16.56188583 C-5.49115743 15.1722812 -5.49155159 13.78267375 -5.49374771 12.39307022 C-5.49645911 10.50390979 -5.49246449 8.6147432 -5.48806763 6.72558594 C-5.4876906 5.66590103 -5.48731358 4.60621613 -5.48692513 3.51441956 C-5.27075396 -0.55534003 -3.63427912 0.01688723 0 0 Z M27.63891602 27.14526367 C27.96891602 36.05526367 28.29891602 44.96526367 28.63891602 54.14526367 C31.60891602 53.81526367 34.57891602 53.48526367 37.63891602 53.14526367 C37.63891602 44.56526367 37.63891602 35.98526367 37.63891602 27.14526367 C34.33891602 27.14526367 31.03891602 27.14526367 27.63891602 27.14526367 Z M28.63891602 80.14526367 C27.07914538 83.26480495 27.51787475 86.57485751 27.54125977 89.99682617 C27.54267471 90.77085785 27.54408966 91.54488953 27.54554749 92.34237671 C27.55115198 94.81837809 27.56370518 97.29428955 27.57641602 99.77026367 C27.58143044 101.4473457 27.58599345 103.12442914 27.59008789 104.80151367 C27.60112287 108.91613173 27.61839048 113.03068245 27.63891602 117.14526367 C33.52340393 117.70999526 33.52340393 117.70999526 38.61767578 115.06567383 C41.08812028 111.49622618 41.18230333 109.72007738 40.97875977 105.41870117 C40.92655273 104.13995117 40.8743457 102.86120117 40.82055664 101.54370117 C40.76025269 100.55321777 40.76025269 100.55321777 40.69873047 99.54272461 C40.57639709 97.51995078 40.49213184 95.49831692 40.41430664 93.47338867 C40.33901772 86.41712057 40.33901772 86.41712057 37.63891602 80.14526367 C35.43166528 79.7816355 35.43166528 79.7816355 33.01391602 79.95776367 C32.19665039 79.98483398 31.37938477 80.0119043 30.53735352 80.03979492 C29.59762695 80.09200195 29.59762695 80.09200195 28.63891602 80.14526367 Z " fill="#FE7D00" transform="translate(712.361083984375,647.854736328125)"/>
<path d="M0 0 C0.95116196 -0.00315216 1.90232391 -0.00630432 2.88230896 -0.009552 C3.91251663 -0.00752777 4.9427243 -0.00550354 6.00415039 -0.00341797 C7.05961563 -0.00437469 8.11508087 -0.00533142 9.20252991 -0.00631714 C11.43775492 -0.00699854 13.6729819 -0.00514705 15.90820312 -0.00097656 C19.33411094 0.00436693 22.75988733 -0.0009202 26.18579102 -0.00732422 C28.3544111 -0.00666333 30.5230311 -0.00538193 32.69165039 -0.00341797 C33.71983383 -0.0054422 34.74801727 -0.00746643 35.80735779 -0.009552 C36.76167191 -0.00639984 37.71598602 -0.00324768 38.69921875 0 C39.53923935 0.00079559 40.37925995 0.00159119 41.24473572 0.00241089 C43.41430664 0.12939453 43.41430664 0.12939453 46.41430664 1.12939453 C46.47489258 1.83966797 46.53547852 2.54994141 46.59790039 3.28173828 C46.68168945 4.20083984 46.76547852 5.11994141 46.85180664 6.06689453 C46.93301758 6.98341797 47.01422852 7.89994141 47.09790039 8.84423828 C47.1747564 11.09099185 47.1747564 11.09099185 48.41430664 12.12939453 C48.50082275 13.54509576 48.52135568 14.96498954 48.51196289 16.38330078 C48.50712891 17.66430664 48.50712891 17.66430664 48.50219727 18.97119141 C48.48962891 20.31793945 48.48962891 20.31793945 48.47680664 21.69189453 C48.47229492 22.59359375 48.4677832 23.49529297 48.46313477 24.42431641 C48.45130889 26.65940767 48.43482884 28.8943689 48.41430664 31.12939453 C49.07430664 31.12939453 49.73430664 31.12939453 50.41430664 31.12939453 C50.41430664 37.06939453 50.41430664 43.00939453 50.41430664 49.12939453 C51.07430664 49.12939453 51.73430664 49.12939453 52.41430664 49.12939453 C52.47489258 50.41716797 52.53547852 51.70494141 52.59790039 53.03173828 C52.68228911 54.71013612 52.76693794 56.38852089 52.85180664 58.06689453 C52.89112305 58.91703125 52.93043945 59.76716797 52.97094727 60.64306641 C53.0128418 61.45195313 53.05473633 62.26083984 53.09790039 63.09423828 C53.13455811 63.84310303 53.17121582 64.59196777 53.20898438 65.36352539 C53.23201727 67.1540078 53.23201727 67.1540078 54.41430664 68.12939453 C54.70071751 69.66697855 54.92953101 71.21538019 55.13305664 72.76611328 C55.2600293 73.72839844 55.38700195 74.69068359 55.51782227 75.68212891 C55.64866211 76.71660156 55.77950195 77.75107422 55.91430664 78.81689453 C56.05030273 79.87328125 56.18629883 80.92966797 56.32641602 82.01806641 C57.13663217 88.46422521 57.72967488 94.8767328 58.09790039 101.36376953 C58.43692267 105.39855318 58.98315726 109.37345692 59.55175781 113.38110352 C61.12066704 124.44817656 61.69148938 134.94969086 61.41430664 146.12939453 C50.52430664 146.12939453 39.63430664 146.12939453 28.41430664 146.12939453 C27.91930664 140.18939453 27.91930664 140.18939453 27.41430664 134.12939453 C27.09274049 131.12811042 26.7640881 128.12752129 26.41430664 125.12939453 C22.12430664 125.12939453 17.83430664 125.12939453 13.41430664 125.12939453 C13.90930664 128.09939453 13.90930664 128.09939453 14.41430664 131.12939453 C13.75976119 137.78393999 13.75976119 137.78393999 12.41430664 139.12939453 C12.08430664 141.43939453 11.75430664 143.74939453 11.41430664 146.12939453 C0.52430664 146.12939453 -10.36569336 146.12939453 -21.58569336 146.12939453 C-21.58569336 131.11343708 -21.58569336 131.11343708 -20.64819336 123.56689453 C-20.56118164 122.80054688 -20.47416992 122.03419922 -20.38452148 121.24462891 C-19.73696492 115.73320301 -19.73696492 115.73320301 -19.06542969 113.05273438 C-18.42189075 110.47268361 -18.34822561 107.97257674 -18.21069336 105.31689453 C-17.76127588 98.46690223 -16.96795489 91.68654412 -16.08569336 84.87939453 C-15.95501465 83.85483154 -15.82433594 82.83026855 -15.68969727 81.7746582 C-15.56256348 80.81406494 -15.43542969 79.85347168 -15.30444336 78.86376953 C-15.13332031 77.56777832 -15.13332031 77.56777832 -14.95874023 76.24560547 C-14.58569336 74.12939453 -14.58569336 74.12939453 -13.58569336 72.12939453 C-13.35295127 69.25028866 -13.16596579 66.38792958 -13.02319336 63.50439453 C-12.98000977 62.70259766 -12.93682617 61.90080078 -12.89233398 61.07470703 C-12.78617879 59.09314343 -12.68542481 57.11129182 -12.58569336 55.12939453 C-11.92569336 55.12939453 -11.26569336 55.12939453 -10.58569336 55.12939453 C-10.58569336 49.18939453 -10.58569336 43.24939453 -10.58569336 37.12939453 C-9.92569336 37.12939453 -9.26569336 37.12939453 -8.58569336 37.12939453 C-8.6030957 35.32341797 -8.6030957 35.32341797 -8.62084961 33.48095703 C-8.6302277 31.90543774 -8.63932788 30.32991679 -8.64819336 28.75439453 C-8.65657227 27.96033203 -8.66495117 27.16626953 -8.67358398 26.34814453 C-8.69897461 20.35595703 -8.69897461 20.35595703 -7.58569336 18.12939453 C-7.35295127 15.25028866 -7.16596579 12.38792958 -7.02319336 9.50439453 C-6.98000977 8.70259766 -6.93682617 7.90080078 -6.89233398 7.07470703 C-6.78617879 5.09314343 -6.68542481 3.11129182 -6.58569336 1.12939453 C-4.18290669 -0.07199881 -2.68262599 0.00254315 0 0 Z M19.41430664 47.12939453 C18.44869061 53.81628554 18.13836074 60.4432217 17.91430664 67.19189453 C17.57593619 76.52066528 17.12564563 85.82144823 16.41430664 95.12939453 C18.72430664 95.12939453 21.03430664 95.12939453 23.41430664 95.12939453 C23.44187855 93.46282572 23.46095467 91.79611602 23.47680664 90.12939453 C23.4884082 89.20126953 23.50000977 88.27314453 23.51196289 87.31689453 C23.42044947 84.32989657 23.05952969 81.456639 22.66162109 78.49853516 C22.02082661 72.36006562 22.04186604 66.14362581 21.89672852 59.97705078 C21.84548828 58.35863281 21.84548828 58.35863281 21.79321289 56.70751953 C21.76815674 55.73202148 21.74310059 54.75652344 21.71728516 53.75146484 C21.41055483 51.09692518 20.7642556 49.41272906 19.41430664 47.12939453 Z " fill="#FE7E00" transform="translate(855.585693359375,647.87060546875)"/>
<path d="M0 0 C0.97125824 -0.00315216 1.94251648 -0.00630432 2.94320679 -0.009552 C4.00044952 -0.00752777 5.05769226 -0.00550354 6.14697266 -0.00341797 C7.22604889 -0.00437469 8.30512512 -0.00533142 9.41690063 -0.00631714 C11.70518044 -0.00699924 13.99346217 -0.00514289 16.28173828 -0.00097656 C19.78894399 0.00436091 23.29602102 -0.00091522 26.80322266 -0.00732422 C29.02197294 -0.00666324 31.24072314 -0.00538167 33.45947266 -0.00341797 C34.51266693 -0.0054422 35.56586121 -0.00746643 36.65097046 -0.009552 C37.62853302 -0.00639984 38.60609558 -0.00324768 39.61328125 0 C40.47408295 0.00079559 41.33488464 0.00159119 42.22177124 0.00241089 C44.43603516 0.12939453 44.43603516 0.12939453 47.43603516 1.12939453 C47.49662109 1.91185547 47.55720703 2.69431641 47.61962891 3.50048828 C47.70341797 4.51240234 47.78720703 5.52431641 47.87353516 6.56689453 C47.95474609 7.57623047 48.03595703 8.58556641 48.11962891 9.62548828 C48.16814984 12.06580232 48.16814984 12.06580232 49.43603516 13.12939453 C49.5223539 14.47206866 49.54309989 15.81913775 49.53369141 17.16455078 C49.52885742 18.37788086 49.52885742 18.37788086 49.52392578 19.61572266 C49.51135742 20.89092773 49.51135742 20.89092773 49.49853516 22.19189453 C49.49402344 23.04589844 49.48951172 23.89990234 49.48486328 24.77978516 C49.47303889 26.89635117 49.45510284 29.01288138 49.43603516 31.12939453 C50.09603516 31.12939453 50.75603516 31.12939453 51.43603516 31.12939453 C51.43603516 37.06939453 51.43603516 43.00939453 51.43603516 49.12939453 C52.09603516 49.12939453 52.75603516 49.12939453 53.43603516 49.12939453 C53.43603516 55.39939453 53.43603516 61.66939453 53.43603516 68.12939453 C54.09603516 68.12939453 54.75603516 68.12939453 55.43603516 68.12939453 C55.43603516 74.06939453 55.43603516 80.00939453 55.43603516 86.12939453 C56.09603516 86.12939453 56.75603516 86.12939453 57.43603516 86.12939453 C57.49662109 87.40556641 57.55720703 88.68173828 57.61962891 89.99658203 C57.70403084 91.66586469 57.78867901 93.3351349 57.87353516 95.00439453 C57.91285156 95.84615234 57.95216797 96.68791016 57.99267578 97.55517578 C58.03457031 98.36083984 58.07646484 99.16650391 58.11962891 99.99658203 C58.15628662 100.74020996 58.19294434 101.48383789 58.23071289 102.25 C58.33559381 104.21803765 58.33559381 104.21803765 59.43603516 106.12939453 C59.70110912 109.78520624 59.88089314 113.43486086 60.04150391 117.09619141 C59.86775588 120.92707355 59.86775588 120.92707355 61.43603516 124.12939453 C61.5931817 125.76196211 61.68688929 127.40074791 61.75244141 129.03955078 C61.79433594 130.02890625 61.83623047 131.01826172 61.87939453 132.03759766 C61.91871094 133.07851563 61.95802734 134.11943359 61.99853516 135.19189453 C62.04171875 136.23667969 62.08490234 137.28146484 62.12939453 138.35791016 C62.2358474 140.94826337 62.33786275 143.53871639 62.43603516 146.12939453 C57.75464262 146.15404741 53.07328757 146.17223192 48.3918457 146.18432617 C46.79808901 146.1893661 45.20433697 146.19619803 43.6105957 146.20483398 C41.32453263 146.21691452 39.03853049 146.22262608 36.75244141 146.22705078 C36.03576797 146.23221207 35.31909454 146.23737335 34.58070374 146.24269104 C32.86539843 146.24288716 31.15022249 146.19131461 29.43603516 146.12939453 C27.53954213 144.23290151 28.08352334 140.91829822 27.93603516 138.37939453 C27.68731008 134.13330209 27.27406546 130.31954607 26.43603516 126.12939453 C22.47603516 125.79939453 18.51603516 125.46939453 14.43603516 125.12939453 C14.45666016 127.08876953 14.47728516 129.04814453 14.49853516 131.06689453 C14.51980704 133.0877233 14.50847569 135.10975254 14.43603516 137.12939453 C14.10603516 137.45939453 13.77603516 137.78939453 13.43603516 138.12939453 C12.94103516 142.08939453 12.94103516 142.08939453 12.43603516 146.12939453 C1.54603516 146.12939453 -9.34396484 146.12939453 -20.56396484 146.12939453 C-20.56396484 131.12939453 -20.56396484 131.12939453 -19.56396484 127.12939453 C-19.31195681 123.87079067 -19.12335711 120.61764141 -18.95849609 117.35400391 C-18.66637458 112.23180427 -18.66637458 112.23180427 -17.56396484 111.12939453 C-17.35188003 108.68747352 -17.18755434 106.26350875 -17.06396484 103.81689453 C-16.85810407 99.81023398 -16.55903849 96.02417499 -15.56396484 92.12939453 C-15.36605896 89.79850297 -15.20249205 87.46456742 -15.06396484 85.12939453 C-14.83705063 81.30426922 -14.49120009 77.83109149 -13.56396484 74.12939453 C-13.36572818 71.81938668 -13.20228356 69.50626312 -13.06396484 67.19189453 C-12.81649969 63.06011034 -12.37403348 59.17973769 -11.56396484 55.12939453 C-11.26935364 51.55723369 -11.05904392 47.98455686 -10.84521484 44.40673828 C-10.56396484 41.12939453 -10.56396484 41.12939453 -10.09130859 39.33007812 C-9.40047718 36.4471363 -9.1380007 33.59109619 -8.84521484 30.64111328 C-8.71759766 29.3771875 -8.58998047 28.11326172 -8.45849609 26.81103516 C-8.32678182 25.4796751 -8.19527303 24.1482947 -8.06396484 22.81689453 C-7.80482407 20.21650665 -7.54444612 17.6162417 -7.28271484 15.01611328 C-7.16863281 13.86328857 -7.05455078 12.71046387 -6.93701172 11.52270508 C-5.67082927 0.00525095 -5.67082927 0.00525095 0 0 Z M20.43603516 43.12939453 C20.37544922 43.90025391 20.31486328 44.67111328 20.25244141 45.46533203 C20.12675781 46.96966797 20.12675781 46.96966797 19.99853516 48.50439453 C19.91732422 49.50212891 19.83611328 50.49986328 19.75244141 51.52783203 C19.43603516 54.12939453 19.43603516 54.12939453 18.43603516 56.12939453 C18.34963646 58.53778131 18.32035752 60.91673334 18.33837891 63.32470703 C18.33979385 64.03215057 18.3412088 64.73959412 18.34266663 65.46847534 C18.34826915 67.73049122 18.36082198 69.99240852 18.37353516 72.25439453 C18.37854984 73.78694519 18.3831128 75.31949739 18.38720703 76.85205078 C18.39823939 80.61120341 18.41550564 84.37028225 18.43603516 88.12939453 C17.77603516 88.12939453 17.11603516 88.12939453 16.43603516 88.12939453 C16.43603516 90.43939453 16.43603516 92.74939453 16.43603516 95.12939453 C19.07603516 95.12939453 21.71603516 95.12939453 24.43603516 95.12939453 C24.46290795 93.31697401 24.48237231 91.5044422 24.49853516 89.69189453 C24.51013672 88.68255859 24.52173828 87.67322266 24.53369141 86.63330078 C24.72216191 84.18918386 24.72216191 84.18918386 23.43603516 83.12939453 C23.28908412 80.94482347 23.20842227 78.75574546 23.15478516 76.56689453 C23.13637573 75.90157715 23.11796631 75.23625977 23.09899902 74.55078125 C23.04010009 72.41041148 22.98747016 70.26995581 22.93603516 68.12939453 C22.64005097 55.59909007 22.64005097 55.59909007 21.43603516 43.12939453 C21.10603516 43.12939453 20.77603516 43.12939453 20.43603516 43.12939453 Z " fill="#FE7E00" transform="translate(502.56396484375,647.87060546875)"/>
<path d="M0 0 C1.02931641 -0.02449219 2.05863281 -0.04898438 3.11914062 -0.07421875 C11.97476877 -0.10782645 18.40231751 2.44206243 26.1875 6.375 C26.1875 7.035 26.1875 7.695 26.1875 8.375 C26.8475 8.375 27.5075 8.375 28.1875 8.375 C28.1875 9.035 28.1875 9.695 28.1875 10.375 C28.79335937 10.62765625 29.39921875 10.8803125 30.0234375 11.140625 C32.48590731 12.54521067 33.36437518 13.71457288 34.8125 16.125 C35.21726562 16.77984375 35.62203125 17.4346875 36.0390625 18.109375 C39.15301644 24.25254944 39.44463064 29.50117324 39.3125 36.25 C39.30347656 37.12914062 39.29445313 38.00828125 39.28515625 38.9140625 C39.26174577 41.0678271 39.2258801 43.22145014 39.1875 45.375 C34.36369198 45.3996519 29.53992033 45.41783693 24.71606445 45.42993164 C23.07380536 45.43497174 21.43155077 45.44180378 19.78930664 45.45043945 C17.43374521 45.46251926 15.07824291 45.46823139 12.72265625 45.47265625 C11.98410904 45.47781754 11.24556183 45.48297882 10.4846344 45.48829651 C8.71851912 45.4884925 6.95252854 45.43694719 5.1875 45.375 C3.05014735 43.23764735 3.67754051 38.73698992 3.46875 35.84375 C3.45364735 33.4336395 3.45364735 33.4336395 2.1875 32.375 C-0.8125 32.20833333 -0.8125 32.20833333 -3.8125 32.375 C-4.1425 32.705 -4.4725 33.035 -4.8125 33.375 C-4.42390641 36.87234228 -3.92653913 40.03288261 -2.8125 43.375 C-2.1525 43.375 -1.4925 43.375 -0.8125 43.375 C1.3125 45.25 1.3125 45.25 3.1875 47.375 C3.1875 48.035 3.1875 48.695 3.1875 49.375 C4.8375 50.035 6.4875 50.695 8.1875 51.375 C8.1875 52.035 8.1875 52.695 8.1875 53.375 C9.19296875 53.65923828 9.19296875 53.65923828 10.21875 53.94921875 C14.4210726 55.96743947 17.35504203 58.97052325 20.6875 62.1875 C21.33847656 62.80431641 21.98945313 63.42113281 22.66015625 64.05664062 C24.51363914 65.81838548 26.35336839 67.59313907 28.1875 69.375 C29.1259375 70.28636719 30.064375 71.19773437 31.03125 72.13671875 C35.1875 76.45108696 35.1875 76.45108696 35.1875 80.375 C35.8475 80.375 36.5075 80.375 37.1875 80.375 C37.1875 81.695 37.1875 83.015 37.1875 84.375 C37.8475 84.375 38.5075 84.375 39.1875 84.375 C41.02344041 90.62593998 41.49400107 96.25237682 41.4375 102.75 C41.44910156 104.07257813 41.44910156 104.07257813 41.4609375 105.421875 C41.43650652 113.75284072 40.07238941 121.54458588 37.1875 129.375 C36.5275 129.375 35.8675 129.375 35.1875 129.375 C35.1875 130.695 35.1875 132.015 35.1875 133.375 C33.8125 135.125 33.8125 135.125 32.1875 136.375 C31.5275 136.375 30.8675 136.375 30.1875 136.375 C30.1875 137.035 30.1875 137.695 30.1875 138.375 C29.5275 138.375 28.8675 138.375 28.1875 138.375 C28.1875 139.035 28.1875 139.695 28.1875 140.375 C25.1875 142.375 25.1875 142.375 22.1875 142.375 C22.1875 143.035 22.1875 143.695 22.1875 144.375 C18.20152828 146.30369599 14.52696151 146.77057376 10.17578125 147.12890625 C8.1163014 147.27144924 8.1163014 147.27144924 6.1875 148.375 C4.3125 148.5078125 4.3125 148.5078125 2.1875 148.5 C1.135625 148.50386719 1.135625 148.50386719 0.0625 148.5078125 C-1.8125 148.375 -1.8125 148.375 -3.8125 147.375 C-5.31051377 147.24536419 -6.81118789 147.14564228 -8.3125 147.0625 C-16.89427239 146.26766146 -24.7448766 143.21740881 -30.37109375 136.51953125 C-34.79854315 130.86046523 -37.15482192 126.73492123 -36.8125 119.375 C-37.4725 119.375 -38.1325 119.375 -38.8125 119.375 C-38.83715622 115.12085377 -38.85533899 110.86674502 -38.86743164 106.61254883 C-38.87247101 105.16429927 -38.87930253 103.71605483 -38.88793945 102.26782227 C-38.90002247 100.19025412 -38.90573211 98.11275303 -38.91015625 96.03515625 C-38.91539307 94.78355713 -38.92062988 93.53195801 -38.92602539 92.24243164 C-38.8125 89.375 -38.8125 89.375 -37.8125 88.375 C-33.43126853 88.13253708 -29.04442683 88.14648045 -24.65722656 88.13476562 C-22.45339071 88.12506991 -20.25049131 88.09406478 -18.046875 88.0625 C-16.64844305 88.05596911 -15.25000442 88.05071897 -13.8515625 88.046875 C-12.57490723 88.0375293 -11.29825195 88.02818359 -9.98291016 88.01855469 C-6.8125 88.375 -6.8125 88.375 -4.90454102 89.57641602 C-3.45646388 91.96138901 -3.38124282 93.69649846 -3.30078125 96.48046875 C-3.26533203 97.46337891 -3.22988281 98.44628906 -3.19335938 99.45898438 C-3.15952148 100.99522461 -3.15952148 100.99522461 -3.125 102.5625 C-3.09083984 103.59826172 -3.05667969 104.63402344 -3.02148438 105.70117188 C-2.93897358 108.2590066 -2.86983428 110.81649723 -2.8125 113.375 C-0.5025 114.035 1.8075 114.695 4.1875 115.375 C6.16227217 109.45068348 6.08883235 102.66930052 3.8125 96.875 C3.27625 96.05 2.74 95.225 2.1875 94.375 C1.52083333 93.04166667 0.85416667 91.70833333 0.1875 90.375 C-0.4725 90.375 -1.1325 90.375 -1.8125 90.375 C-1.8125 89.715 -1.8125 89.055 -1.8125 88.375 C-2.4725 88.375 -3.1325 88.375 -3.8125 88.375 C-3.8125 87.715 -3.8125 87.055 -3.8125 86.375 C-4.369375 86.1275 -4.92625 85.88 -5.5 85.625 C-8.23660913 84.14575182 -10.48900869 82.44032561 -12.8125 80.375 C-12.8125 79.715 -12.8125 79.055 -12.8125 78.375 C-14.4625 77.715 -16.1125 77.055 -17.8125 76.375 C-17.8125 75.715 -17.8125 75.055 -17.8125 74.375 C-18.6478125 74.00375 -18.6478125 74.00375 -19.5 73.625 C-22.23660913 72.14575182 -24.48900869 70.44032561 -26.8125 68.375 C-26.8125 67.715 -26.8125 67.055 -26.8125 66.375 C-27.4725 66.375 -28.1325 66.375 -28.8125 66.375 C-32.8125 62.02205882 -32.8125 62.02205882 -32.8125 58.375 C-33.4725 58.375 -34.1325 58.375 -34.8125 58.375 C-34.8125 57.055 -34.8125 55.735 -34.8125 54.375 C-35.4725 54.375 -36.1325 54.375 -36.8125 54.375 C-40.86239744 44.5186231 -40.57279059 30.34440189 -36.6875 20.5 C-34.33080639 15.81346969 -31.56041856 12.03963148 -27.8125 8.375 C-27.1525 8.375 -26.4925 8.375 -25.8125 8.375 C-25.8125 7.715 -25.8125 7.055 -25.8125 6.375 C-17.13610539 1.06292167 -10.09890264 0.01250638 0 0 Z " fill="#FE7E00" transform="translate(203.8125,647.625)"/>
<path d="M0 0 C1.70209877 0.00333092 1.70209877 0.00333092 3.43858337 0.00672913 C4.71983597 0.00680466 6.00108856 0.00688019 7.32116699 0.00695801 C8.73001646 0.01206542 10.13886554 0.01728143 11.54771423 0.02259827 C12.98118033 0.02446249 14.41464706 0.02588637 15.84811401 0.02688599 C19.62765755 0.03071079 23.40716288 0.04054075 27.18669128 0.05158997 C31.71793579 0.06359972 36.24919305 0.0682065 40.78044891 0.07404327 C47.67034521 0.08375254 54.56015761 0.10290931 61.45005798 0.12025452 C61.45005798 10.35025452 61.45005798 20.58025452 61.45005798 31.12025452 C51.88005798 31.12025452 42.31005798 31.12025452 32.45005798 31.12025452 C32.45005798 39.04025452 32.45005798 46.96025452 32.45005798 55.12025452 C42.02005798 55.12025452 51.59005798 55.12025452 61.45005798 55.12025452 C61.45005798 65.35025452 61.45005798 75.58025452 61.45005798 86.12025452 C51.88005798 86.12025452 42.31005798 86.12025452 32.45005798 86.12025452 C32.45005798 95.36025452 32.45005798 104.60025452 32.45005798 114.12025452 C42.68005798 114.45025452 52.91005798 114.78025452 63.45005798 115.12025452 C63.45005798 125.35025452 63.45005798 135.58025452 63.45005798 146.12025452 C47.01881576 146.16036333 47.01881576 146.16036333 40.03794861 146.16908264 C35.26653436 146.17507042 30.49513923 146.18216897 25.72373962 146.19569397 C21.87880684 146.20652513 18.03389454 146.21253183 14.18894768 146.21513176 C12.71886815 146.2169856 11.2487898 146.22060542 9.77871895 146.22598457 C7.72651331 146.23319807 5.67439331 146.23424533 3.62217712 146.23377991 C2.45191483 146.23600052 1.28165253 146.23822113 0.07592773 146.24050903 C-2.54994202 146.12025452 -2.54994202 146.12025452 -3.54994202 145.12025452 C-3.64863077 143.26228471 -3.67626368 141.40052109 -3.67692566 139.53993225 C-3.67974548 138.32836456 -3.68256531 137.11679687 -3.68547058 135.86851501 C-3.68352599 134.51362595 -3.6814778 133.15873703 -3.67933655 131.80384827 C-3.68069056 130.38662165 -3.68247048 128.96939539 -3.68464661 127.5521698 C-3.689221 123.69277211 -3.68743136 119.83340102 -3.68426752 115.97400284 C-3.68174395 111.94389522 -3.68408145 107.91378995 -3.68565369 103.88368225 C-3.68747539 97.11455372 -3.68506905 90.34543608 -3.68031311 83.5763092 C-3.67487049 75.73908967 -3.67663314 67.90189614 -3.68213952 60.06467724 C-3.68667062 53.34792196 -3.68732121 46.63117453 -3.68470085 39.91441822 C-3.68313806 35.89748521 -3.68294436 31.88056444 -3.68623734 27.8636322 C-3.68911601 24.08803458 -3.68714043 20.31247064 -3.68134308 16.53687668 C-3.68001546 15.14727204 -3.68040963 13.7576646 -3.68260574 12.36806107 C-3.68531714 10.47890063 -3.68132252 8.58973404 -3.67692566 6.70057678 C-3.67654863 5.64089188 -3.67617161 4.58120697 -3.67578316 3.4894104 C-3.50020235 0.18382765 -3.32028209 0.15658353 0 0 Z " fill="#FE7E00" transform="translate(414.54994201660156,647.8797454833984)"/>
<path d="M0 0 C0 2.64 0 5.28 0 8 C-0.66 8 -1.32 8 -2 8 C-2 9.32 -2 10.64 -2 12 C-2.66 12 -3.32 12 -4 12 C-4.28875 12.94875 -4.5775 13.8975 -4.875 14.875 C-6 18 -6 18 -8 20 C-8.165 20.66 -8.33 21.32 -8.5 22 C-9 24 -9 24 -11 26 C-9.35 26 -7.7 26 -6 26 C-6 26.66 -6 27.32 -6 28 C-5.34 28 -4.68 28 -4 28 C-3.505 28.99 -3.505 28.99 -3 30 C-1.68 29.34 -0.36 28.68 1 28 C1 27.34 1 26.68 1 26 C4.06246747 24.21590198 6.22079273 23.77119979 9.75 23.875 C10.54921875 23.89304687 11.3484375 23.91109375 12.171875 23.9296875 C12.77515625 23.95289063 13.3784375 23.97609375 14 24 C14 24.66 14 25.32 14 26 C14.61875 26.226875 15.2375 26.45375 15.875 26.6875 C18.61410209 28.37929835 19.05024472 29.99244161 20 33 C20.33 31.35 20.66 29.7 21 28 C21.66 28 22.32 28 23 28 C22.95875 27.236875 22.9175 26.47375 22.875 25.6875 C23 23 23 23 25 20 C25.66 20 26.32 20 27 20 C27 18.68 27 17.36 27 16 C27.99 15.34 28.98 14.68 30 14 C30.73343428 10.93443402 30.73343428 10.93443402 31 8 C31.66 8 32.32 8 33 8 C33 6.68 33 5.36 33 4 C33.66 4 34.32 4 35 4 C35 3.34 35 2.68 35 2 C37.375 1.875 37.375 1.875 40 2 C40.99 2.99 40.99 2.99 42 4 C41.9765625 6.3828125 41.9765625 6.3828125 41.625 9.125 C41.51414062 10.03507813 41.40328125 10.94515625 41.2890625 11.8828125 C41.19367188 12.58148437 41.09828125 13.28015625 41 14 C40.34 14 39.68 14 39 14 C38.896875 14.70125 38.79375 15.4025 38.6875 16.125 C37.90640997 19.39137647 36.57941257 22.0471852 35 25 C33.68 25 32.36 25 31 25 C31 28.3 31 31.6 31 35 C31.66 35 32.32 35 33 35 C33 34.34 33 33.68 33 33 C35.50554345 31.28191307 37.91519495 30.03276559 40.75 28.9375 C43.16232993 28.22002336 43.16232993 28.22002336 44 26 C48.05008687 23.87781426 51.6005009 23.73078769 56.125 23.75 C57.34445312 23.74484375 58.56390625 23.7396875 59.8203125 23.734375 C63 24 63 24 66 26 C66.6875 28.625 66.6875 28.625 67 31 C74.56069389 28.4032159 74.56069389 28.4032159 81 24 C88.84053286 22.89630525 94.49634221 24.66422814 101 29 C101.47308594 28.6390625 101.94617188 28.278125 102.43359375 27.90625 C107.06039518 24.6593718 110.36357763 23.45872711 116.01953125 23.62890625 C118 24 118 24 121 26 C121 26.66 121 27.32 121 28 C121.66 28 122.32 28 123 28 C123 29.65 123 31.3 123 33 C119.7 33 116.4 33 113 33 C113 33.66 113 34.32 113 35 C113.94875 35.2475 114.8975 35.495 115.875 35.75 C119 37 119 37 120.375 39.125 C120.58125 39.74375 120.7875 40.3625 121 41 C121.66 41 122.32 41 123 41 C123 40.34 123 39.68 123 39 C123.66 39 124.32 39 125 39 C125.268125 38.071875 125.53625 37.14375 125.8125 36.1875 C126.90977245 33.24218975 127.53357169 31.84982123 130 30 C130.66 30 131.32 30 132 30 C132.268125 28.989375 132.53625 27.97875 132.8125 26.9375 C133.8935156 23.12672558 135.37862338 19.61124792 137 16 C137.99 16 138.98 16 140 16 C140.185625 15.1646875 140.185625 15.1646875 140.375 14.3125 C142.11111111 7.88888889 142.11111111 7.88888889 144 6 C146.9375 5.8125 146.9375 5.8125 150 6 C152 8 152 8 152.125 11.125 C152.08375 12.07375 152.0425 13.0225 152 14 C151.34 14 150.68 14 150 14 C149.855625 14.763125 149.71125 15.52625 149.5625 16.3125 C148.62559525 20.7888227 147.76444884 22.4498895 144 25 C144.66 25.33 145.32 25.66 146 26 C146 25.34 146 24.68 146 24 C148.64 24 151.28 24 154 24 C154 24.66 154 25.32 154 26 C154.99 26 155.98 26 157 26 C157 26.66 157 27.32 157 28 C157.99 28 158.98 28 160 28 C160.33 29.32 160.66 30.64 161 32 C161.928125 31.505 162.85625 31.01 163.8125 30.5 C167 29 167 29 170 29 C170.33 28.01 170.66 27.02 171 26 C175.05455356 23.72824643 178.74076985 23.7895471 183.3125 23.875 C184.56675781 23.89304687 185.82101562 23.91109375 187.11328125 23.9296875 C188.54220703 23.96449219 188.54220703 23.96449219 190 24 C191.98 27.465 191.98 27.465 194 31 C194.63808594 30.32517578 194.63808594 30.32517578 195.2890625 29.63671875 C200.26951273 24.87231545 205.18194488 23.74257292 212 23.75 C214.00072285 23.81365936 216.00127206 23.89031371 218 24 C218 23.34 218 22.68 218 22 C218.66 22 219.32 22 220 22 C220 21.34 220 20.68 220 20 C220.66 20 221.32 20 222 20 C222.37125 18.700625 222.37125 18.700625 222.75 17.375 C224.10244135 13.72340836 225.50419223 10.99496932 228 8 C231.75766697 7.26679669 232.76259258 7.84172838 236 10 C236.40843923 12.71203652 236.13336867 15.2437142 236 18 C235.34 18 234.68 18 234 18 C233.87625 18.7425 233.7525 19.485 233.625 20.25 C233.04513299 22.80141485 232.26291261 24.7267573 231 27 C230.34 27 229.68 27 229 27 C228.896875 27.53625 228.79375 28.0725 228.6875 28.625 C227.81907303 31.62502044 226.44379704 34.2379535 225 37 C224.34 37 223.68 37 223 37 C223 37.66 223 38.32 223 39 C222.34 39 221.68 39 221 39 C221 40.32 221 41.64 221 43 C220.34 43 219.68 43 219 43 C219 43.66 219 44.32 219 45 C218.34 45 217.68 45 217 45 C216.34 47.64 215.68 50.28 215 53 C213.02 53 211.04 53 209 53 C209 52.34 209 51.68 209 51 C208.34 51 207.68 51 207 51 C207 49.68 207 48.36 207 47 C206.113125 47.61875 205.22625 48.2375 204.3125 48.875 C200.04412812 51.61320083 196.16417953 53.98365324 191 53 C188.22599897 51.35151578 185.9571593 49.5785719 184 47 C184.0625 43.625 184.0625 43.625 185 41 C183.35 41 181.7 41 180 41 C180 41.66 180 42.32 180 43 C175.58311346 45.08575198 175.58311346 45.08575198 172.875 44.6875 C172.25625 44.460625 171.6375 44.23375 171 44 C170.01 43.67 169.02 43.34 168 43 C168 42.34 168 41.68 168 41 C166.68 42.32 165.36 43.64 164 45 C165.98 45 167.96 45 170 45 C171.76462683 48.08809695 172 49.23312136 172 53 C163.93103448 53.62068966 163.93103448 53.62068966 160.5625 51.375 C158.78292182 48.67004117 157.84966873 46.11545201 157 43 C156.01 43.33 155.02 43.66 154 44 C154 45.32 154 46.64 154 48 C151.03 48.495 151.03 48.495 148 49 C148 49.99 148 50.98 148 52 C145.03 52.495 145.03 52.495 142 53 C142 49.23312136 142.23537317 48.08809695 144 45 C144.66 45 145.32 45 146 45 C146.12375 44.21625 146.2475 43.4325 146.375 42.625 C147 40 147 40 149 38 C149.6425235 35.93125966 149.6425235 35.93125966 150 34 C146.535 34.495 146.535 34.495 143 35 C143 35.66 143 36.32 143 37 C138.61538462 40 138.61538462 40 136 40 C136 40.99 136 41.98 136 43 C135.01 43 134.02 43 133 43 C132.67 44.32 132.34 45.64 132 47 C131.34 47 130.68 47 130 47 C129.690625 47.61875 129.38125 48.2375 129.0625 48.875 C128.375 50.25 127.6875 51.625 127 53 C125.00045254 53.04254356 122.99958364 53.04080783 121 53 C120.67 52.67 120.34 52.34 120 52 C117.5 51.83333333 117.5 51.83333333 115 52 C114.67 52.33 114.34 52.66 114 53 C112.45044441 53.09899523 110.89646327 53.13079524 109.34375 53.1328125 C107.93416016 53.13474609 107.93416016 53.13474609 106.49609375 53.13671875 C105.50738281 53.13285156 104.51867187 53.12898437 103.5 53.125 C102.51128906 53.12886719 101.52257812 53.13273438 100.50390625 53.13671875 C99.56417969 53.13542969 98.62445313 53.13414062 97.65625 53.1328125 C96.78806641 53.13168457 95.91988281 53.13055664 95.02539062 53.12939453 C93 53 93 53 92 52 C91.95936168 50.33382885 91.957279 48.66611905 92 47 C96.98229776 45.08373163 101.72684667 44.4452885 107 44 C106.01 43.21625 105.02 42.4325 104 41.625 C103.01 40.75875 102.02 39.8925 101 39 C101 38.34 101 37.68 101 37 C97.87802522 38.3089572 97.87802522 38.3089572 96 41 C95.01 41 94.02 41 93 41 C92.87625 41.721875 92.7525 42.44375 92.625 43.1875 C92.0095069 45.95721894 91.11555626 48.3970354 90 51 C89.34 51 88.68 51 88 51 C88 51.66 88 52.32 88 53 C87.34 53 86.68 53 86 53 C85.67 54.32 85.34 55.64 85 57 C80.25 56.125 80.25 56.125 78 55 C78 53.68 78 52.36 78 51 C76.989375 51.515625 75.97875 52.03125 74.9375 52.5625 C71.0413371 54.26408951 68.15707428 53.93322076 64 53 C64 52.34 64 51.68 64 51 C63.34 51 62.68 51 62 51 C62 50.34 62 49.68 62 49 C61.34 49 60.68 49 60 49 C58.64560332 46.29120665 58.93498549 43.99066732 59 41 C57.35 41 55.7 41 54 41 C54 41.66 54 42.32 54 43 C49.63464567 45.06141732 49.63464567 45.06141732 47.0625 44.8125 C44.279697 43.71624427 41.64917489 42.38479596 39 41 C38.67 42.32 38.34 43.64 38 45 C38.763125 44.95875 39.52625 44.9175 40.3125 44.875 C43 45 43 45 46 47 C45.67 48.98 45.34 50.96 45 53 C42.36 53 39.72 53 37 53 C36.01 51.02 36.01 51.02 35 49 C34.34 49 33.68 49 33 49 C30.60926555 45.17482487 30.44033448 41.40334476 30 37 C27.60236815 39.39763185 27.65719414 40.33273498 27.375 43.625 C27.26285156 44.85089844 27.26285156 44.85089844 27.1484375 46.1015625 C27.09945312 46.72804688 27.05046875 47.35453125 27 48 C28.485 48.495 28.485 48.495 30 49 C30 50.32 30 51.64 30 53 C28.741875 53.04125 27.48375 53.0825 26.1875 53.125 C25.12595703 53.15980469 25.12595703 53.15980469 24.04296875 53.1953125 C22 53 22 53 19 51 C16.47920505 47.5455773 15.63380449 45.272281 16 41 C12.46574329 44.71353903 12.46574329 44.71353903 10.4375 49.25 C10 51 10 51 8.1875 52.25 C6 53 6 53 2 53 C0.7874589 48.95819633 0.91799616 46.58064413 2.75 42.875 C4.29434552 40.07587375 5.94831772 37.46201874 8 35 C3.49997553 36.2272794 1.16321584 37.61863134 -2 41 C-2.99 41.33 -3.98 41.66 -5 42 C-5.33 42.99 -5.66 43.98 -6 45 C-6.66 45 -7.32 45 -8 45 C-8.66 46.98 -9.32 48.96 -10 51 C-10.66 51 -11.32 51 -12 51 C-12 51.66 -12 52.32 -12 53 C-13.98 53 -15.96 53 -18 53 C-18 52.34 -18 51.68 -18 51 C-18.66 51 -19.32 51 -20 51 C-20.79953138 47.71303767 -21.09658936 46.28976808 -20 43 C-19.34 43 -18.68 43 -18 43 C-17.34 40.36 -16.68 37.72 -16 35 C-15.34 35 -14.68 35 -14 35 C-13.67 33.02 -13.34 31.04 -13 29 C-13.66 29 -14.32 29 -15 29 C-16.41377341 31.63904371 -17.37240135 34.07120629 -18 37 C-18.66 37 -19.32 37 -20 37 C-20.226875 37.556875 -20.45375 38.11375 -20.6875 38.6875 C-22.37028092 41.65239972 -24.56108512 43.616515 -27 46 C-27.95983558 47.24884684 -28.91811755 48.49888899 -29.875 49.75 C-32.13021511 52.38491969 -32.9333929 52.97779763 -36.375 54.125 C-42.05127423 53.92926641 -46.3088307 52.1274462 -51 49 C-52.77698495 42.30213364 -51.79019912 36.35175868 -48.5625 30.30859375 C-47.51437603 28.57767748 -46.44169172 26.86128554 -45.33984375 25.1640625 C-43.85670589 22.95432908 -43.85670589 22.95432908 -43 20 C-42.34 20 -41.68 20 -41 20 C-40.87625 19.195625 -40.87625 19.195625 -40.75 18.375 C-39.13507101 13.2610582 -35.70920473 9.70920473 -32 6 C-31.690625 5.278125 -31.38125 4.55625 -31.0625 3.8125 C-30 2 -30 2 -27.6875 1.1875 C-24.90291857 0.99322688 -22.69377709 1.30731446 -20 2 C-20.23952675 7.03006185 -21.72276651 8.96027948 -25.37890625 12.30078125 C-28.33274033 15.39696878 -30.09187255 19.20404434 -32 23 C-32.598125 24.175625 -33.19625 25.35125 -33.8125 26.5625 C-34.204375 27.366875 -34.59625 28.17125 -35 29 C-35.66 29 -36.32 29 -37 29 C-37 30.32 -37 31.64 -37 33 C-37.66 33 -38.32 33 -39 33 C-39 34.32 -39 35.64 -39 37 C-39.66 37 -40.32 37 -41 37 C-41 39.31 -41 41.62 -41 44 C-34.72793636 39.91586553 -30.18281178 36.34633511 -26 30 C-25.34 30 -24.68 30 -24 30 C-24 28.68 -24 27.36 -24 26 C-22.67732273 24.98594743 -21.34275169 23.98731742 -20 23 C-18.73152315 20.41501488 -18.73152315 20.41501488 -18 18 C-16.68 18 -15.36 18 -14 18 C-12.48046291 13.08417923 -12.48046291 13.08417923 -12 8 C-10.68 8 -9.36 8 -8 8 C-8 6.02 -8 4.04 -8 2 C-4.91190305 0.23537317 -3.76687864 0 0 0 Z M78 36 C77.113125 36.33 76.22625 36.66 75.3125 37 C74.1678125 37.495 74.1678125 37.495 73 38 C72.67 38.99 72.34 39.98 72 41 C69.9375 42.1875 69.9375 42.1875 68 43 C68 43.66 68 44.32 68 45 C70.76276177 44.47731534 73.3260876 43.89130413 76 43 C76 42.34 76 41.68 76 41 C77.051875 40.6596875 77.051875 40.6596875 78.125 40.3125 C81.71586536 38.6731919 84.07780486 36.65036303 87 34 C87 33.67 87 33.34 87 33 C82.79418409 32.64951534 81.22297877 33.38132975 78 36 Z M207 33 C207 33.66 207 34.32 207 35 C207.99 34.67 208.98 34.34 210 34 C209.01 33.67 208.02 33.34 207 33 Z M198 39 C198 39.66 198 40.32 198 41 C201.91402949 39.73058503 203.79072873 38.48832306 206 35 C202.06830895 35 200.83572772 36.39419615 198 39 Z M185 39 C185.33 39.66 185.66 40.32 186 41 C186.33 40.34 186.66 39.68 187 39 C186.34 39 185.68 39 185 39 Z M196 41 C196.33 41.66 196.66 42.32 197 43 C197.33 42.34 197.66 41.68 198 41 C197.34 41 196.68 41 196 41 Z " fill="#00A0AE" transform="translate(265,806)"/>
<path d="M0 0 C17.13983119 -0.04010881 17.13983119 -0.04010881 24.4296875 -0.04882812 C29.40951601 -0.05481259 34.38932618 -0.06190238 39.36914062 -0.07543945 C43.38265815 -0.08628184 47.39615601 -0.09227972 51.40968704 -0.09487724 C52.94313491 -0.09672905 54.47658168 -0.100345 56.01002121 -0.10573006 C58.15302632 -0.1129584 60.29594956 -0.11399018 62.43896484 -0.11352539 C64.27096939 -0.11685631 64.27096939 -0.11685631 66.13998413 -0.12025452 C69 0 69 0 71 1 C71 10.9 71 20.8 71 31 C64.73 31 58.46 31 52 31 C52.495 31.99 52.495 31.99 53 33 C53.09428819 34.49286873 53.1262982 35.98988985 53.12698364 37.48573303 C53.12980347 38.42942245 53.13262329 39.37311188 53.13552856 40.34539795 C53.13350433 41.38391907 53.1314801 42.42244019 53.12939453 43.49243164 C53.13114685 44.5835173 53.13289917 45.67460297 53.13470459 46.79875183 C53.13911985 50.41923597 53.13618644 54.03967159 53.1328125 57.66015625 C53.13348558 60.16596994 53.13445565 62.67178358 53.13571167 65.17759705 C53.13718816 70.4342397 53.13513023 75.69086962 53.13037109 80.94750977 C53.1249259 87.03235786 53.12669352 93.11717247 53.1321975 99.20201975 C53.13727414 105.04755543 53.13674728 110.89307833 53.13381577 116.73861504 C53.13314632 119.23022911 53.13397554 121.72184403 53.13629532 124.21345711 C53.1388202 127.68798245 53.1349837 131.16244244 53.12939453 134.63696289 C53.13141876 135.67750824 53.13344299 136.71805359 53.13552856 137.79013062 C53.13270874 138.73100021 53.12988892 139.67186981 53.12698364 140.64125061 C53.12660662 141.46365769 53.12622959 142.28606478 53.12584114 143.13339329 C53 145 53 145 52 146 C40.78 146 29.56 146 18 146 C18 108.05 18 70.1 18 31 C12.06 31 6.12 31 0 31 C0 20.77 0 10.54 0 0 Z " fill="#FE7F00" transform="translate(247,648)"/>
<path d="M0 0 C2.20576197 -0.00218874 4.41102562 -0.02035586 6.61669922 -0.03930664 C8.01383292 -0.0422402 9.410969 -0.04422525 10.80810547 -0.04516602 C12.08363281 -0.0492749 13.35916016 -0.05338379 14.67333984 -0.05761719 C17.71435547 0.18530273 17.71435547 0.18530273 19.71435547 2.18530273 C19.96324444 4.64347839 19.96324444 4.64347839 19.96159363 7.80322266 C19.96578812 8.99789154 19.9699826 10.19256042 19.9743042 11.4234314 C19.96868469 12.74090363 19.96306519 14.05837585 19.95727539 15.41577148 C19.95834787 16.81181935 19.96028605 18.20786677 19.96302795 19.60391235 C19.96788488 23.40137152 19.96021009 27.19871359 19.95007491 30.9961586 C19.94130793 34.9643974 19.94305159 38.93263239 19.94343567 42.90087891 C19.94249839 49.56569383 19.93380598 56.23046328 19.92016602 62.89526367 C19.90443983 70.60808679 19.89916788 78.32086009 19.89990157 86.03369808 C19.90051133 93.44366588 19.89541062 100.85361741 19.88710976 108.26358032 C19.88357321 111.42143887 19.88174598 114.57929166 19.88121605 117.7371521 C19.88021356 121.45367642 19.87412465 125.1701587 19.86404991 128.88666916 C19.85972198 130.90683308 19.86029753 132.92700563 19.86099243 134.94717407 C19.85672745 136.14184296 19.85246246 137.33651184 19.84806824 138.56738281 C19.84639239 139.61009842 19.84471655 140.65281403 19.84298992 141.72712708 C19.71435547 144.18530273 19.71435547 144.18530273 18.71435547 146.18530273 C14.03296293 146.20995562 9.35160788 146.22814013 4.67016602 146.24023438 C3.07640932 146.24527431 1.48265728 146.25210623 -0.11108398 146.26074219 C-2.39714706 146.27282272 -4.6831492 146.27853429 -6.96923828 146.28295898 C-7.68591171 146.28812027 -8.40258514 146.29328156 -9.14097595 146.29859924 C-10.85628126 146.29879536 -12.57145719 146.24722281 -14.28564453 146.18530273 C-15.28564453 145.18530273 -15.28564453 145.18530273 -15.40869236 142.81335354 C-15.40777057 141.75236981 -15.40684877 140.69138609 -15.40589905 139.59825134 C-15.40727371 138.38523849 -15.40864838 137.17222565 -15.4100647 135.92245483 C-15.40652509 134.56597876 -15.40289028 133.20950293 -15.39916992 131.85302734 C-15.39888805 130.43417869 -15.39904578 129.01532989 -15.39961243 127.59648132 C-15.39990042 123.73301473 -15.39400344 119.86957891 -15.38703847 116.00611949 C-15.3808052 111.97287701 -15.38020115 107.93963389 -15.37901306 103.90638733 C-15.37589967 96.26364805 -15.36768617 88.620923 -15.35766357 80.97819 C-15.34650269 72.27942255 -15.34099205 63.58065442 -15.33596814 54.88188159 C-15.32550356 36.98301389 -15.30790396 19.08415946 -15.28564453 1.18530273 C-10.8799275 -1.01755578 -4.89985645 -0.00054674 0 0 Z " fill="#FE7D00" transform="translate(809.28564453125,647.814697265625)"/>
<path d="M0 0 C1.98 0 3.96 0 6 0 C6 0.66 6 1.32 6 2 C6.66 2 7.32 2 8 2 C8.22036864 5.85645121 7.60355101 8.49223216 6 12 C5.34 12 4.68 12 4 12 C4 13.98 4 15.96 4 18 C6.64 18 9.28 18 12 18 C12 19.32 12 20.64 12 22 C13.46373047 21.93039062 13.46373047 21.93039062 14.95703125 21.859375 C16.22933594 21.82328125 17.50164063 21.7871875 18.8125 21.75 C20.07707031 21.70359375 21.34164062 21.6571875 22.64453125 21.609375 C26 22 26 22 27.6953125 23.9921875 C28.12585938 24.65476562 28.55640625 25.31734375 29 26 C31.83568858 26.66259654 34.04239226 26.28167693 37 26 C37.66 25.34 38.32 24.68 39 24 C40.32 24 41.64 24 43 24 C43 22.02 43 20.04 43 18 C46.62528568 17.79859524 48.86501708 18.14223235 52 20 C52 19.34 52 18.68 52 18 C53.65 17.67 55.3 17.34 57 17 C57 16.01 57 15.02 57 14 C57.99 13.67 58.98 13.34 60 13 C60.103125 11.906875 60.20625 10.81375 60.3125 9.6875 C61.00088755 5.99523952 61.22662538 5.2186997 64 3 C64.66 2.01 65.32 1.02 66 0 C69.125 -0.1875 69.125 -0.1875 72 0 C72 0.66 72 1.32 72 2 C72.66 2 73.32 2 74 2 C73.46274105 5.37705625 72.88935377 8.696686 72 12 C71.34 12 70.68 12 70 12 C70 13.65 70 15.3 70 17 C72.64 17.33 75.28 17.66 78 18 C78.1875 20.875 78.1875 20.875 78 24 C77.01 24.66 76.02 25.32 75 26 C76.94074861 25.72382467 76.94074861 25.72382467 79 25 C79.99 23.515 79.99 23.515 81 22 C83.64453125 21.63671875 83.64453125 21.63671875 86.8125 21.6875 C87.85019531 21.69136719 88.88789062 21.69523438 89.95703125 21.69921875 C93.00089038 22.00008801 95.23939202 22.71920036 98 24 C98 24.66 98 25.32 98 26 C98.66 26 99.32 26 100 26 C101.125 32.75 101.125 32.75 100 35 C99.34 35 98.68 35 98 35 C97.34 36.32 96.68 37.64 96 39 C95.34 39 94.68 39 94 39 C94 40.32 94 41.64 94 43 C93.34 43 92.68 43 92 43 C91.67 44.65 91.34 46.3 91 48 C89.515 48.495 89.515 48.495 88 49 C86.77479736 52.00847418 86.77479736 52.00847418 86 55 C81.68607774 54.5206753 79.83430453 53.2542015 77 50 C76.505 50.350625 76.01 50.70125 75.5 51.0625 C71.8557195 52.42910519 68.69146086 52.20770016 65 51 C62.625 48.5 62.625 48.5 61 46 C60.34 45.67 59.68 45.34 59 45 C59 43.02 59 41.04 59 39 C59.66 39 60.32 39 61 39 C61.226875 38.2575 61.45375 37.515 61.6875 36.75 C63.26875885 33.43688621 65.06839761 32.16380177 68 30 C69.35147138 28.68505488 70.69112542 27.35735142 72 26 C69.03 26.33 66.06 26.66 63 27 C63 27.66 63 28.32 63 29 C62.34 29 61.68 29 61 29 C61 29.66 61 30.32 61 31 C60.01 31.66 59.02 32.32 58 33 C56.99831469 34.94832935 56.99831469 34.94832935 56.3125 37.125 C56.06113281 37.84945312 55.80976562 38.57390625 55.55078125 39.3203125 C55.36902344 39.87460937 55.18726563 40.42890625 55 41 C54.34 41 53.68 41 53 41 C53 41.66 53 42.32 53 43 C52.34 43 51.68 43 51 43 C50.731875 43.763125 50.46375 44.52625 50.1875 45.3125 C49.02271111 47.94860118 48.34002598 49.35331505 46 51 C43.3125 51.1875 43.3125 51.1875 41 51 C41 50.34 41 49.68 41 49 C40.34 49 39.68 49 39 49 C38.69320388 42.25048544 38.69320388 42.25048544 41 39 C46.15850144 34 46.15850144 34 49 34 C49 33.01 49 32.02 49 31 C42.9050292 33.06042376 38.89961969 36.96622797 35 42 C33.76595951 45.12749193 33.3752326 47.62290659 33 51 C29.50813979 51.20145347 26.80082611 51.34907805 23.5625 49.9375 C21.23356006 47.04961448 21.72949205 44.58423038 22 41 C22.66 40.67 23.32 40.34 24 40 C24.33 39.01 24.66 38.02 25 37 C24.1646875 37.495 24.1646875 37.495 23.3125 38 C20.69715478 39.1309601 18.8193354 39.15662974 16 39 C16 39.66 16 40.32 16 41 C11.58311346 43.08575198 11.58311346 43.08575198 8.875 42.6875 C8.25625 42.460625 7.6375 42.23375 7 42 C6.01 41.67 5.02 41.34 4 41 C4 40.34 4 39.68 4 39 C2.68 40.32 1.36 41.64 0 43 C0.763125 42.9175 1.52625 42.835 2.3125 42.75 C5 43 5 43 6.8125 44.75 C8 47 8 47 8 51 C-0.06896552 51.62068966 -0.06896552 51.62068966 -3.4375 49.375 C-6.46586276 44.77188861 -7.47659954 40.48089475 -7 35 C-6 32.625 -6 32.625 -5 31 C-5.66 31 -6.32 31 -7 31 C-7.18175781 31.63808594 -7.36351562 32.27617188 -7.55078125 32.93359375 C-7.80214844 33.75988281 -8.05351563 34.58617187 -8.3125 35.4375 C-8.55613281 36.26121094 -8.79976562 37.08492187 -9.05078125 37.93359375 C-9.36402344 38.61550781 -9.67726563 39.29742188 -10 40 C-11.485 40.495 -11.485 40.495 -13 41 C-13.433125 42.11375 -13.433125 42.11375 -13.875 43.25 C-15.31212005 46.76296013 -17.06653738 48.61229787 -20 51 C-22.8125 51.3125 -22.8125 51.3125 -25 51 C-25 50.34 -25 49.68 -25 49 C-25.66 49 -26.32 49 -27 49 C-27 47.02 -27 45.04 -27 43 C-26.34 43 -25.68 43 -25 43 C-24.95875 42.443125 -24.9175 41.88625 -24.875 41.3125 C-23.76038052 38.36671996 -21.87282016 37.24877164 -19.43359375 35.37109375 C-17.23900432 33.27218124 -16.67312416 30.89443387 -16 28 C-17.32 27.67 -18.64 27.34 -20 27 C-20 26.34 -20 25.68 -20 25 C-20.99 25 -21.98 25 -23 25 C-23 23.02 -23 21.04 -23 19 C-20.08517222 18.19032562 -18.53886783 17.78154007 -15.6875 18.9375 C-14.8521875 19.4634375 -14.8521875 19.4634375 -14 20 C-14 19.34 -14 18.68 -14 18 C-12.02 18 -10.04 18 -8 18 C-8 16.68 -8 15.36 -8 14 C-7.01 14 -6.02 14 -5 14 C-4.67 11.36 -4.34 8.72 -4 6 C-3.34 6 -2.68 6 -2 6 C-1.34 4.02 -0.68 2.04 0 0 Z M-3 28 C-3 28.33 -3 28.66 -3 29 C0.62528568 29.20140476 2.86501708 28.85776765 6 27 C6 26.34 6 25.68 6 25 C1.73012377 25 0.40274199 25.63698473 -3 28 Z M79 33 C79 33.66 79 34.32 79 35 C77.35 35 75.7 35 74 35 C73.9175 35.61875 73.835 36.2375 73.75 36.875 C73 39 73 39 70.9375 40.25 C70.298125 40.4975 69.65875 40.745 69 41 C69 41.66 69 42.32 69 43 C75.94646569 41.95616616 81.92193676 38.27597403 86.625 33.125 C87.07875 32.42375 87.5325 31.7225 88 31 C84.37471432 30.79859524 82.13498292 31.14223235 79 33 Z " fill="#00A0AE" transform="translate(599,808)"/>
<path d="M0 0 C7.4659249 -0.36717663 7.4659249 -0.36717663 10 1.375 C11 3 11 3 11 5 C12.051875 4.484375 13.10375 3.96875 14.1875 3.4375 C16.59908438 2.42337297 17.96709836 2 20.625 2 C23.8057895 3.33927979 25.61157073 5.54871733 28 8 C30.85062324 8 32.43418582 7.64548367 35.0625 6.6875 C35.75472656 6.44386719 36.44695313 6.20023438 37.16015625 5.94921875 C39.34264222 5.01157213 39.34264222 5.01157213 41 2 C45.09407127 -0.22776491 48.71408893 -0.21095161 53.3125 -0.125 C54.56675781 -0.10695313 55.82101562 -0.08890625 57.11328125 -0.0703125 C58.54220703 -0.03550781 58.54220703 -0.03550781 60 0 C60 0.66 60 1.32 60 2 C61.8871875 1.87625 61.8871875 1.87625 63.8125 1.75 C65.95703125 1.609375 65.95703125 1.609375 68 2 C69.76171875 4.015625 69.76171875 4.015625 71 6 C71.70962891 5.3503125 71.70962891 5.3503125 72.43359375 4.6875 C76.98865681 0.85165743 80.03792971 -0.66033573 86.01953125 -0.40625 C88 0 88 0 91 2 C91 2.66 91 3.32 91 4 C91.66 4 92.32 4 93 4 C94.37353255 11.93596585 94.37353255 11.93596585 93 15 C91.0625 17.25 91.0625 17.25 89 19 C88.34 19 87.68 19 87 19 C86.7525 19.9075 86.505 20.815 86.25 21.75 C84.93289486 25.17447337 83.9776393 26.87311478 81 29 C78.25 28.75 78.25 28.75 76 28 C76.4109917 22.04062033 77.35383419 18.8995353 81 14 C81.33 13.01 81.66 12.02 82 11 C80.8553125 11.495 80.8553125 11.495 79.6875 12 C77 13 77 13 74 13 C73.67 14.32 73.34 15.64 73 17 C71.68 17 70.36 17 69 17 C68.89171875 17.57234375 68.7834375 18.1446875 68.671875 18.734375 C67.90497913 21.32041921 66.82173407 23.06253505 65.25 25.25 C64.76015625 25.95640625 64.2703125 26.6628125 63.765625 27.390625 C62 29 62 29 59.484375 29.359375 C57 29 57 29 54 27 C53.66042335 23.99232114 53.45506013 21.90252186 54 19 C56 16.5 56 16.5 58 15 C57.46890625 15.26554688 56.9378125 15.53109375 56.390625 15.8046875 C54.26041667 16.86979167 52.13020833 17.93489583 50 19 C49.30519531 19.38027344 48.61039063 19.76054688 47.89453125 20.15234375 C44.47136498 21.68394598 41.39919525 20.13306508 38 19 C38 18.34 38 17.68 38 17 C37.34 17 36.68 17 36 17 C35.67 18.32 35.34 19.64 35 21 C35.763125 20.95875 36.52625 20.9175 37.3125 20.875 C40 21 40 21 43 23 C42.67 24.98 42.34 26.96 42 29 C34.89006342 29.7230444 34.89006342 29.7230444 32.35546875 27.6640625 C31 26 31 26 29 23 C28.278125 23.804375 27.55625 24.60875 26.8125 25.4375 C23.96978458 28.0275296 22.76077615 28.7967148 19 29 C18.34 28.67 17.68 28.34 17 28 C17 25.03 17 22.06 17 19 C17.66 19 18.32 19 19 19 C19 17.02 19 15.04 19 13 C18.67 13 18.34 13 18 13 C16.68 13 15.36 13 14 13 C14 13.66 14 14.32 14 15 C13.34 15 12.68 15 12 15 C12.495 16.98 12.495 16.98 13 19 C12.01 19.66 11.02 20.32 10 21 C8.99831469 22.94832935 8.99831469 22.94832935 8.3125 25.125 C8.06113281 25.84945312 7.80976562 26.57390625 7.55078125 27.3203125 C7.36902344 27.87460937 7.18726563 28.42890625 7 29 C3.28400809 29.20086443 2.22791555 29.1519437 -1 27 C-1.98318415 23.05087698 -1.61220096 19.29029854 0.125 15.62890625 C1.34488359 13.68471677 2.60819029 11.82426487 4 10 C1.55519921 10.18828772 1.55519921 10.18828772 -1 11 C-2.27489266 12.79927039 -2.27489266 12.79927039 -3 15 C-3.66666667 16.33333333 -4.33333333 17.66666667 -5 19 C-5.66 19 -6.32 19 -7 19 C-7 20.32 -7 21.64 -7 23 C-7.66 23 -8.32 23 -9 23 C-9 24.32 -9 25.64 -9 27 C-12.24633524 29.1642235 -13.24301443 29.37569856 -17 29 C-17.99 28.34 -18.98 27.68 -20 27 C-19.53981898 22.85837086 -19.14493915 20.75182176 -16 18 C-15.67 17.01 -15.34 16.02 -15 15 C-14.34 15 -13.68 15 -13 15 C-13 13.35 -13 11.7 -13 10 C-12.34 10 -11.68 10 -11 10 C-10.7834375 8.576875 -10.7834375 8.576875 -10.5625 7.125 C-10 4 -10 4 -9 2 C-8.2575 2.185625 -7.515 2.37125 -6.75 2.5625 C-4.05009037 2.99203108 -2.55368923 2.85122974 0 2 C0 1.34 0 0.68 0 0 Z " fill="#00A0AE" transform="translate(764,830)"/>
<path d="M0 0 C0.97646484 0.04833984 1.95292969 0.09667969 2.95898438 0.14648438 C4.47008789 0.2305957 4.47008789 0.2305957 6.01171875 0.31640625 C7.55182617 0.3947168 7.55182617 0.3947168 9.12304688 0.47460938 C11.64877962 0.60383291 14.17407136 0.73877916 16.69921875 0.87890625 C16.69921875 3.51890625 16.69921875 6.15890625 16.69921875 8.87890625 C16.07273437 8.93949219 15.44625 9.00007812 14.80078125 9.0625 C13.98351562 9.14628906 13.16625 9.23007812 12.32421875 9.31640625 C11.51210938 9.39761719 10.7 9.47882812 9.86328125 9.5625 C7.6564907 9.76980739 7.6564907 9.76980739 5.69921875 10.87890625 C3.36623215 10.91913016 1.03215209 10.92210872 -1.30078125 10.87890625 C-1.42453125 11.62140625 -1.54828125 12.36390625 -1.67578125 13.12890625 C-2.25564826 15.6803211 -3.03786864 17.60566355 -4.30078125 19.87890625 C-2.35078996 19.68419514 -2.35078996 19.68419514 -0.30078125 18.87890625 C0.98358609 16.89512955 0.98358609 16.89512955 1.69921875 14.87890625 C4.17421875 15.86890625 4.17421875 15.86890625 6.69921875 16.87890625 C6.282334 21.74256171 4.2870241 23.70828757 0.69921875 26.87890625 C-0.16703125 27.77609375 -0.16703125 27.77609375 -1.05078125 28.69140625 C-4.63676452 30.58400853 -8.32736739 30.10814167 -12.30078125 29.87890625 C-12.30078125 30.53890625 -12.30078125 31.19890625 -12.30078125 31.87890625 C-12.96078125 31.87890625 -13.62078125 31.87890625 -14.30078125 31.87890625 C-14.30078125 33.19890625 -14.30078125 34.51890625 -14.30078125 35.87890625 C-14.96078125 35.87890625 -15.62078125 35.87890625 -16.30078125 35.87890625 C-16.42453125 36.66265625 -16.54828125 37.44640625 -16.67578125 38.25390625 C-17.30078125 40.87890625 -17.30078125 40.87890625 -19.30078125 42.87890625 C-15.52866266 43.16181514 -12.75872353 42.79533261 -9.30078125 41.37890625 C-5.84283897 39.96247989 -3.07289984 39.59599736 0.69921875 39.87890625 C0.69921875 40.53890625 0.69921875 41.19890625 0.69921875 41.87890625 C1.35921875 41.87890625 2.01921875 41.87890625 2.69921875 41.87890625 C3.35921875 39.23890625 4.01921875 36.59890625 4.69921875 33.87890625 C5.35921875 33.87890625 6.01921875 33.87890625 6.69921875 33.87890625 C7.35921875 30.90890625 8.01921875 27.93890625 8.69921875 24.87890625 C10.67921875 24.87890625 12.65921875 24.87890625 14.69921875 24.87890625 C14.69921875 25.53890625 14.69921875 26.19890625 14.69921875 26.87890625 C15.35921875 26.87890625 16.01921875 26.87890625 16.69921875 26.87890625 C17.19421875 27.86890625 17.19421875 27.86890625 17.69921875 28.87890625 C19.01921875 28.21890625 20.33921875 27.55890625 21.69921875 26.87890625 C21.69921875 26.21890625 21.69921875 25.55890625 21.69921875 24.87890625 C22.68921875 24.87890625 23.67921875 24.87890625 24.69921875 24.87890625 C24.69921875 24.21890625 24.69921875 23.55890625 24.69921875 22.87890625 C27.99921875 22.87890625 31.29921875 22.87890625 34.69921875 22.87890625 C34.69921875 23.53890625 34.69921875 24.19890625 34.69921875 24.87890625 C35.33859375 25.18828125 35.97796875 25.49765625 36.63671875 25.81640625 C38.69921875 26.87890625 38.69921875 26.87890625 39.69921875 27.87890625 C39.77101839 29.39818663 39.78313882 30.92058107 39.76171875 32.44140625 C39.75269531 33.26769531 39.74367188 34.09398437 39.734375 34.9453125 C39.72277344 35.58339844 39.71117187 36.22148438 39.69921875 36.87890625 C38.21421875 37.37390625 38.21421875 37.37390625 36.69921875 37.87890625 C35.61862031 39.68975747 35.61862031 39.68975747 34.69921875 41.87890625 C29.88580789 50.50535041 29.88580789 50.50535041 25.32421875 51.94140625 C24.45796875 51.92078125 23.59171875 51.90015625 22.69921875 51.87890625 C21.48667765 47.83710258 21.61721491 45.45955038 23.44921875 41.75390625 C24.99356427 38.95478 26.64753647 36.34092499 28.69921875 33.87890625 C25.28588703 34.8098149 23.1051925 35.4729325 20.57421875 38.00390625 C19.95546875 38.62265625 19.33671875 39.24140625 18.69921875 39.87890625 C17.37921875 39.87890625 16.05921875 39.87890625 14.69921875 39.87890625 C14.69921875 41.19890625 14.69921875 42.51890625 14.69921875 43.87890625 C14.03921875 43.87890625 13.37921875 43.87890625 12.69921875 43.87890625 C12.41046875 44.64203125 12.12171875 45.40515625 11.82421875 46.19140625 C10.69921875 48.87890625 10.69921875 48.87890625 8.69921875 51.87890625 C5.57421875 52.06640625 5.57421875 52.06640625 2.69921875 51.87890625 C2.69921875 51.21890625 2.69921875 50.55890625 2.69921875 49.87890625 C2.03921875 49.87890625 1.37921875 49.87890625 0.69921875 49.87890625 C0.36921875 48.88890625 0.03921875 47.89890625 -0.30078125 46.87890625 C-0.96078125 46.54890625 -1.62078125 46.21890625 -2.30078125 45.87890625 C-2.39359375 46.80703125 -2.39359375 46.80703125 -2.48828125 47.75390625 C-3.30078125 49.87890625 -3.30078125 49.87890625 -5.3828125 50.96484375 C-8.8927744 52.06434989 -12.13183085 52.37941762 -15.80078125 52.62890625 C-17.734375 52.77585937 -17.734375 52.77585937 -19.70703125 52.92578125 C-24.61706235 52.86173737 -27.16992251 51.98000555 -30.67578125 48.56640625 C-32.30078125 45.87890625 -32.30078125 45.87890625 -32.11328125 43.25390625 C-31.84515625 42.47015625 -31.57703125 41.68640625 -31.30078125 40.87890625 C-30.97078125 39.88890625 -30.64078125 38.89890625 -30.30078125 37.87890625 C-29.64078125 37.87890625 -28.98078125 37.87890625 -28.30078125 37.87890625 C-28.13578125 37.07453125 -27.97078125 36.27015625 -27.80078125 35.44140625 C-25.99196197 31.14546046 -23.42929328 28.57857641 -20.27734375 25.203125 C-17.54298037 21.98781628 -15.98309562 18.73421 -14.30078125 14.87890625 C-13.64078125 14.87890625 -12.98078125 14.87890625 -12.30078125 14.87890625 C-12.30078125 13.55890625 -12.30078125 12.23890625 -12.30078125 10.87890625 C-11.64078125 10.87890625 -10.98078125 10.87890625 -10.30078125 10.87890625 C-10.30078125 7.57890625 -10.30078125 4.27890625 -10.30078125 0.87890625 C-6.75064296 0.04802282 -3.63668758 -0.19140461 0 0 Z " fill="#00A0AE" transform="translate(537.30078125,807.12109375)"/>
<path d="M0 0 C1.98 0 3.96 0 6 0 C6 0.66 6 1.32 6 2 C6.66 2 7.32 2 8 2 C7.46274105 5.37705625 6.88935377 8.696686 6 12 C5.34 12 4.68 12 4 12 C4 13.65 4 15.3 4 17 C6.64 17.33 9.28 17.66 12 18 C12 20.31 12 22.62 12 25 C8.10891238 26.88995684 6.15246854 26.93430542 2 26 C-0.72502965 26.37722015 -0.72502965 26.37722015 -3 27 C-3 27.66 -3 28.32 -3 29 C-3.66 29 -4.32 29 -5 29 C-5 29.66 -5 30.32 -5 31 C-5.99 31.66 -6.98 32.32 -8 33 C-9.00168531 34.94832935 -9.00168531 34.94832935 -9.6875 37.125 C-9.93886719 37.84945312 -10.19023438 38.57390625 -10.44921875 39.3203125 C-10.63097656 39.87460937 -10.81273437 40.42890625 -11 41 C-11.66 41 -12.32 41 -13 41 C-13 41.66 -13 42.32 -13 43 C-13.66 43 -14.32 43 -15 43 C-15.268125 43.763125 -15.53625 44.52625 -15.8125 45.3125 C-16.97728889 47.94860118 -17.65997402 49.35331505 -20 51 C-22.6875 51.1875 -22.6875 51.1875 -25 51 C-25 50.34 -25 49.68 -25 49 C-25.66 49 -26.32 49 -27 49 C-27.31284916 42.11731844 -27.31284916 42.11731844 -25 39 C-23.82587206 38.18863329 -22.6365886 37.39900186 -21.4375 36.625 C-18.47202932 34.65007036 -18.09045899 34.31962176 -17.0625 30.6875 C-17.041875 29.800625 -17.02125 28.91375 -17 28 C-18.98 27.01 -20.96 26.02 -23 25 C-23 22.69 -23 20.38 -23 18 C-19.37471432 17.79859524 -17.13498292 18.14223235 -14 20 C-14 19.34 -14 18.68 -14 18 C-12.35 17.67 -10.7 17.34 -9 17 C-9 16.01 -9 15.02 -9 14 C-8.01 13.67 -7.02 13.34 -6 13 C-5.67 10.69 -5.34 8.38 -5 6 C-4.01 6 -3.02 6 -2 6 C-1.855625 5.38125 -1.71125 4.7625 -1.5625 4.125 C-1 2 -1 2 0 0 Z " fill="#00A0AD" transform="translate(880,808)"/>
<path d="M0 0 C3.3 0 6.6 0 10 0 C10 0.66 10 1.32 10 2 C10.639375 2.309375 11.27875 2.61875 11.9375 2.9375 C14 4 14 4 15 5 C15.23880597 12.52238806 15.23880597 12.52238806 14 15 C13.34 15 12.68 15 12 15 C11.72671875 15.56332031 11.4534375 16.12664063 11.171875 16.70703125 C9.12205191 20.71785177 6.95027722 24.57878651 4 28 C0.625 29.0625 0.625 29.0625 -2 29 C-3.2125411 24.95819633 -3.08200384 22.58064413 -1.25 18.875 C0.29434552 16.07587375 1.94831772 13.46201874 4 11 C0.58666828 11.93090865 -1.59402625 12.59402625 -4.125 15.125 C-4.74375 15.74375 -5.3625 16.3625 -6 17 C-7.32 17 -8.64 17 -10 17 C-10 18.32 -10 19.64 -10 21 C-10.66 21 -11.32 21 -12 21 C-12.66 22.98 -13.32 24.96 -14 27 C-14.66 27 -15.32 27 -16 27 C-16 27.66 -16 28.32 -16 29 C-17.98 29 -19.96 29 -22 29 C-22 28.34 -22 27.68 -22 27 C-22.99 26.67 -23.98 26.34 -25 26 C-24.67 23.69 -24.34 21.38 -24 19 C-23.34 19 -22.68 19 -22 19 C-21.34 16.36 -20.68 13.72 -20 11 C-19.34 11 -18.68 11 -18 11 C-17.34 8.03 -16.68 5.06 -16 2 C-14.02 2 -12.04 2 -10 2 C-10 2.66 -10 3.32 -10 4 C-9.34 4 -8.68 4 -8 4 C-7.67 4.66 -7.34 5.32 -7 6 C-5.68 5.34 -4.36 4.68 -3 4 C-3 3.34 -3 2.68 -3 2 C-2.01 2 -1.02 2 0 2 C0 1.34 0 0.68 0 0 Z " fill="#009FAE" transform="translate(734,830)"/>
<path d="M0 0 C1.9375 0.6875 1.9375 0.6875 3.9375 1.6875 C4.01892927 3.4367214 4.07688541 5.18704542 4.125 6.9375 C4.15980469 7.91203125 4.19460938 8.8865625 4.23046875 9.890625 C3.89251613 13.11694605 2.97002654 14.23711902 0.9375 16.6875 C0.669375 17.821875 0.40125 18.95625 0.125 20.125 C-1.43132217 24.7939665 -2.99392968 26.00224359 -7.0625 28.6875 C-8.3825 28.6875 -9.7025 28.6875 -11.0625 28.6875 C-11.11699838 26.95869018 -11.15551688 25.22937288 -11.1875 23.5 C-11.21070313 22.53707031 -11.23390625 21.57414063 -11.2578125 20.58203125 C-11.0538544 17.55937222 -10.33124632 15.41980015 -9.0625 12.6875 C-8.4025 12.6875 -7.7425 12.6875 -7.0625 12.6875 C-6.918125 11.800625 -6.77375 10.91375 -6.625 10 C-6.439375 8.906875 -6.25375 7.81375 -6.0625 6.6875 C-5.876875 5.32625 -5.876875 5.32625 -5.6875 3.9375 C-4.81504326 0.79665574 -3.32225652 -0.5033722 0 0 Z " fill="#00A1AF" transform="translate(708.0625,830.3125)"/>
<path d="M0 0 C2.64 0 5.28 0 8 0 C8 2.31 8 4.62 8 7 C6.35 7.66 4.7 8.32 3 9 C1.76078698 6.02588876 0.69941596 3.14737182 0 0 Z " fill="#00A2BC" transform="translate(884,826)"/>
<path d="M0 0 C1.32 0 2.64 0 4 0 C4.3125 2.75 4.3125 2.75 4 6 C1.5 8.375 1.5 8.375 -1 10 C-3 7 -3 7 -2.75 5 C-2 3 -2 3 0 0 Z " fill="#0097A6" transform="translate(673,826)"/>
<path d="M0 0 C0.99 0 1.98 0 3 0 C2.25 2.4375 2.25 2.4375 1 5 C-1.125 5.8125 -1.125 5.8125 -3 6 C-2.01 4.02 -1.02 2.04 0 0 Z " fill="#00A8B7" transform="translate(237,811)"/>
</svg>
